<?xml version="1.0" encoding="UTF-8" standalone="no"?>
<svg
   xmlns:dc="http://purl.org/dc/elements/1.1/"
   xmlns:cc="http://creativecommons.org/ns#"
   xmlns:rdf="http://www.w3.org/1999/02/22-rdf-syntax-ns#"
   xmlns:svg="http://www.w3.org/2000/svg"
   xmlns="http://www.w3.org/2000/svg"
   width="799.99982"
   height="588.93292"
   viewBox="0 0 640.0791 471.20469"
   id="svg3355"
   version="1.1">
  <metadata
     id="metadata3362">
    <rdf:RDF>
      <cc:Work
         rdf:about="">
        <dc:format>image/svg+xml</dc:format>
        <dc:type
           rdf:resource="http://purl.org/dc/dcmitype/StillImage" />
        <dc:title></dc:title>
      </cc:Work>
    </rdf:RDF>
  </metadata>
  <defs
     id="defs3360" />
  <g
     transform="matrix(0.28860106,0,0,0.28860106,-10.966871,-70.82699)"
     id="g4278">
    <path
       id="path4268"
       transform="scale(0.80009912,0.80009912)"
       d="m 2411.9492,306.73047 c -1.1353,-2.2e-4 -2.3005,0.12855 -3.498,0.40625 -7.8866,4.09949 -20.622,18.44812 -27.4961,25.32226 l -43.7442,41.19532 -62.4433,61.29101 -60.0918,64.99219 -53.6934,52.38086 -49.9941,46.4082 -43.7949,44.94336 -30.295,32.4961 c -3.0246,3.42457 -8.8127,8.76101 -10.6875,12.49804 -1.3623,2.72466 -1.8245,6.72576 -0.8496,9.65039 1.6748,5.07437 19.6104,21.8213 24.3848,26.59571 l 78.7402,83.74023 c 7.7991,7.79903 20.1976,24.99669 32.4961,20.32227 4.0995,-1.54981 8.161,-5.9996 11.2481,-9.07422 3.3246,-3.31209 8.6748,-8.14859 10.4746,-12.49805 0.9874,-2.97463 0.9874,-8.18788 0,-11.25 l -14.2246,-28.74609 c -2.5622,-4.51194 -10.1231,-17.82168 -9.9981,-22.4961 0.075,-2.81215 1.4748,-5.28777 3.0996,-7.5 l 39.1836,-39.99414 50.0938,-53.74414 42.6074,-43.63086 39.9941,-37.49609 c 5.5993,-5.21186 19.3235,-16.7726 22.9981,-22.60938 5.1368,-8.14899 -1.3007,-14.47373 -6.75,-19.99804 l -21.2481,-21.24805 c -3.0871,-3.09962 -8.861,-8.24857 -9.8984,-12.49805 -1.0499,-4.23697 1.7628,-8.11093 4.25,-11.24804 l 18.498,-19.99805 13.2852,-13.74805 43.8574,-44.94531 17.4981,-16.29688 19.9961,-18.63476 c 3.6495,-3.41208 8.7499,-6.94938 11.0371,-11.36133 1.6623,-3.2246 2.599,-9.09847 1.1367,-12.49805 -1.4998,-3.46207 -6.8992,-8.47534 -9.6738,-11.25 -7.3511,-7.36236 -15.5232,-19.47635 -26.4981,-19.47851 z m -1668.291,43.22656 c 6.68667,16.51046 25.88355,22.02258 41.24414,27.73438 l 42.4961,12.78515 79.98828,23.63477 c 128.34658,42.63222 236.38438,97.97477 331.16018,197.0625 28.6839,29.98378 61.8553,73.30368 76.2285,112.48633 4.6994,12.83591 14.1847,44.83296 -8.6875,46.07031 -7.1491,0.38745 -20.8969,-5.18867 -27.4961,-8.30078 l -57.4922,-33.76953 c -40.1575,-24.37198 -78.0042,-45.24449 -121.2363,-63.80469 -12.5735,-5.39933 -47.8562,-19.56078 -59.9922,-21.43555 8.6864,-1.73728 31.6578,5.84991 41.2441,8.28711 l 63.7422,17.17188 c 10.8487,2.71216 27.835,6.89962 38.7461,7.03711 5.5243,0.0625 15.0737,0.51225 19.9981,-1.4375 21.1598,-8.32397 6.3487,-38.03131 -1.0879,-51.05469 -21.9848,-38.44524 -60.8298,-68.09296 -96.4004,-93.21485 -23.1971,-16.37297 -57.5685,-33.77018 -83.7403,-45.34375 -50.20618,-22.19725 -98.5621,-35.97151 -152.48042,-45.69531 -25.75931,-4.64942 -51.39347,-7.76116 -77.49024,-9.58594 l -12.49804,-1.1875 -18.74805,0 -13.74805,-1.19921 -21.24804,0 -14.99805,1.19921 -16.24805,0 -12.49804,1.1875 -28.7461,2.4004 c -56.98044,5.69929 -104.59983,15.41111 -159.98047,29.42187 l -99.98828,27.82031 c -16.78542,4.31197 -33.90879,9.06111 -51.24414,10.46094 9.52382,3.77453 31.10985,-0.97489 41.24609,-3.22461 l 96.23829,-24.99609 c 44.73195,-12.42346 95.18812,-22.37184 141.23242,-28.3711 l 48.74414,-4.76172 12.49805,-1.13867 23.74609,-1.25 46.24414,0 19.99805,1.25 41.24414,3.55078 c 85.72688,9.16137 177.77784,36.23301 251.21876,81.96485 27.5341,17.14787 61.5682,42.3682 79.541,69.46484 6.5867,9.92377 17.0611,27.57333 2.9004,36.13477 -2.5497,1.53731 -5.8121,2.27468 -8.6992,2.84961 -3.5496,0.71241 -6.3505,1.09841 -10,0.89843 -23.6721,-1.33733 -53.8432,-8.34785 -77.4903,-13.07226 -29.7713,-5.94926 -59.80448,-10.24881 -89.98824,-13.27344 -13.32335,-1.32484 -37.15823,-3.54945 -49.99414,-2.28711 5.56181,-4.12449 23.78452,-4.68637 31.24609,-5.04883 l 56.24414,-7.02539 c 10.26125,-2.22472 24.47135,-6.38565 29.28325,-16.67187 4.0869,-8.74892 -1.887,-19.27391 -6.9864,-26.24805 -12.4109,-17.01039 -34.0327,-30.88407 -52.29294,-41.07031 -44.14453,-24.63445 -95.1261,-38.40594 -144.98242,-45.33008 l -37.4961,-3.70117 -14.99804,-1.13672 -54.99219,0 -14.99805,1.13672 c -41.25739,2.82465 -81.0913,9.48718 -121.23633,19.52344 C 431.37114,513.98641 301.01327,601.3754 193.72656,708.66211 l -42.44531,42.49414 -15.04883,16.24805 c -8.46145,8.47395 -30.35737,29.28461 -36.244139,37.49609 9.011379,-5.26185 19.884529,-16.31029 27.496099,-23.73437 l 27.49609,-26.25977 c 29.38386,-29.38386 58.75465,-58.44207 89.98828,-85.88867 93.28844,-81.95235 196.46327,-143.17024 316.21094,-177.29102 99.02523,-28.234 207.96272,-34.22105 307.46289,-5.53711 23.64707,6.81166 51.64266,18.72294 71.24023,33.6211 6.61168,5.02437 18.73591,16.07221 18.46094,25.12109 -0.47494,14.78567 -28.25845,20.68583 -39.70703,22.99805 l -91.23828,17.25976 -49.99414,12.23633 c 16.29798,-9.27385 33.92097,-16.63543 48.74414,-28.33398 7.77403,-6.12424 14.52176,-13.58647 13.60937,-24.16016 -1.17485,-13.7233 -18.40884,-24.44633 -29.85742,-29.4707 -28.19651,-12.36097 -58.14402,-18.49753 -88.74023,-20.63477 l -12.49805,-1.13672 c -48.21903,-0.56243 -81.42774,1.81152 -128.73438,12.78516 C 438.35777,539.34554 311.44959,631.38477 222.99805,744.9082 164.96774,819.38648 122.04803,903.67544 90.376953,992.37695 l -29.660156,92.48825 -13.222656,47.4942 c 3.824526,-5.9118 5.749097,-14.4595 7.923828,-21.2461 l 12.486328,-38.7461 c 13.885779,-41.7823 28.072031,-83.11442 45.107423,-123.73439 51.20615,-122.03488 129.54581,-233.94567 234.44531,-315.68554 63.27966,-49.3064 138.15733,-88.96453 216.22266,-108.47461 23.90954,-5.97426 60.66825,-13.24766 84.99023,-13.28516 31.85855,-0.05 57.81711,-0.82527 88.73828,9.58594 9.66131,3.24959 26.25923,10.37405 28.20899,21.66015 1.83727,10.63619 -13.20992,22.57218 -20.70899,28.14649 l -51.24414,33.1582 -32.49609,21.1836 c 6.18673,-10.11126 16.51097,-23.97067 16.77344,-36.24415 0.54993,-26.64669 -36.58258,-32.82199 -56.76758,-33.79687 l -13.75,-1.19922 -4.99805,0 -12.49805,1.29883 -10,0 c -68.06656,6.64917 -137.03162,34.88355 -193.72461,72.44141 -135.63319,89.87636 -221.0609,235.65814 -255.49414,392.45112 -7.89902,35.9456 -13.27375,72.0534 -15.83593,108.7364 l -1.13672,12.5 -1.25,24.9961 0,63.7422 1.25,24.9961 1.13672,13.75 7.94922,79.9882 5.91211,43.7461 c 2.3497,-5.9867 -0.38719,-15.9363 -1.03711,-22.498 l -5,-47.4942 -2.82422,-37.4961 -1.13867,-18.746 -1.24805,-21.2481 0,-68.7422 1.16211,-17.6094 c 1.36233,-30.1462 4.59907,-60.1056 9.77344,-89.8769 16.99789,-97.8629 47.18129,-181.16469 101.1621,-264.96681 54.53075,-84.63951 139.93355,-163.05428 234.10938,-200.72461 24.88442,-9.94877 59.52909,-20.50953 86.23828,-21.79687 9.08637,-0.43745 10.66186,-2.08811 21.24805,-0.67579 15.22311,2.03726 38.23278,6.19908 34.8457,27.08399 -0.67492,4.12449 -2.27599,8.57469 -3.98828,12.38672 -4.062,9.01138 -9.28503,16.70962 -14.54688,24.99609 l -20.06054,29.9961 c -1.57481,-8.73642 -1.87567,-16.14704 -7.25,-23.7461 -8.76142,-12.39846 -24.60843,-16.18555 -38.99414,-16.24804 -25.53434,-0.125 -34.20773,1.58758 -58.74219,8.57421 -18.98515,5.39933 -38.90879,14.15937 -56.24414,23.53321 -64.42952,34.83318 -117.06024,82.54107 -158.70508,142.87109 -17.71031,25.67182 -32.43286,52.91679 -45.40625,81.23828 -83.9146,183.23983 -55.45628,392.76433 26.24609,571.17973 13.58582,29.6588 27.45988,59.4062 44.13282,87.4902 -0.0125,-5.2244 -4.2003,-11.5361 -6.5625,-16.2481 l -16.10938,-32.496 -25.54687,-57.4942 -23.43555,-63.7422 c -14.87316,-44.6194 -25.39582,-85.9757 -32.60742,-132.4824 l -6.97461,-62.4922 -1.25,-23.748 0,-37.4942 1.25,-14.998 0,-11.25 3.5625,-31.2461 c 3.87452,-32.421 10.89774,-68.95269 21.02148,-99.98634 8.76142,-26.85917 18.39841,-53.28088 30.73438,-78.74024 32.83343,-67.80409 86.68905,-134.49618 149.65625,-176.22851 25.40935,-16.82292 67.80461,-39.27001 98.73828,-39.98242 13.11087,-0.28747 25.18372,3.18583 32.50781,14.98437 7.61156,12.26098 6.23633,34.5834 6.23633,48.74414 -16.42297,-8.41145 -22.25873,-13.94775 -42.28125,-14.72265 -31.09615,-1.21235 -68.20436,16.8723 -93.95117,32.94531 -73.17844,45.65684 -135.57123,133.59765 -161.85547,215.5 -19.82254,61.81734 -25.121,107.92404 -24.37109,172.47854 l 1.13671,12.498 6.26172,54.9922 c 16.03552,96.8505 57.30446,184.2538 112.16016,264.9688 20.43497,30.0712 42.69551,58.6167 66.33008,86.2382 9.59881,11.2112 29.2584,34.5702 40.33203,42.4942 l -33.64649,-39.9942 c -20.135,-24.122 -39.4807,-49.0059 -57.16601,-74.9902 -55.00569,-80.8525 -99.81452,-172.8163 -116.125,-269.9668 l -6.78516,-52.4941 0,-9.9981 -1.25,-14.998 0,-27.4981 2.28711,-31.2461 c 7.09912,-73.2784 29.54543,-142.66963 71.42774,-203.72458 14.82316,-21.60982 31.53447,-43.49473 51.26953,-60.89257 21.63482,-19.06014 44.69368,-37.8445 72.49023,-47.00586 13.86078,-4.57444 28.44784,-6.89933 42.4961,-1.5 15.16062,5.82428 21.73492,14.68651 32.49609,25.66015 -20.87241,0 -30.50921,-0.41215 -51.24414,5.53711 -30.6962,8.78641 -57.74315,28.25846 -81.24024,49.25586 -51.81858,46.26927 -88.56506,115.92356 -106.08789,182.67769 -6.21173,23.6471 -12.61094,58.2038 -12.64843,82.4883 l 0,41.2461 c 0.0375,20.2975 6.81156,58.6053 11.83593,78.7403 23.05965,92.201 76.84126,172.0041 141.84571,239.9707 l 12.54882,13.748 16.29688,15.1094 c 24.64695,23.7095 50.31977,46.358 77.44141,67.2304 9.48632,7.3117 26.20983,21.0972 36.24609,26.3965 -6.4867,-7.4115 -14.89899,-12.8855 -22.49805,-19.0722 l -41.24414,-35.0215 c -33.24588,-29.2589 -78.55375,-76.0536 -105.71289,-110.8867 -32.00853,-41.0699 -60.50443,-85.5009 -80.50195,-133.7325 -42.06979,-101.5124 -46.78284,-210.6485 -2.86328,-312.46089 24.32198,-56.39302 72.65425,-125.62382 135.33398,-141.29688 26.19676,-6.64917 33.09521,-1.91226 57.49219,0 -6.67417,3.91202 -15.12201,5.61282 -22.49609,8.1875 -9.49883,3.32459 -18.5722,7.57479 -27.4961,12.19922 -28.93391,14.96065 -58.00556,42.6817 -77.64062,68.41602 -83.50216,109.51143 -95.46384,270.06583 -24.28516,388.70113 39.05766,65.1045 95.96302,111.9488 156.91797,155.5059 l 73.74023,49.4062 c 9.63631,6.0493 30.02233,19.411 39.9961,22.5606 l -27.4961,-18.3359 -49.99414,-34.6836 c -61.46738,-44.382 -130.43479,-103.0111 -171.61718,-166.9532 -50.64373,-78.6277 -67.16555,-169.08 -44.44336,-259.9687 6.99913,-28.009 16.42169,-53.5684 30.73242,-78.74025 26.44672,-46.51923 61.37981,-81.22633 112.83594,-98.32422 9.41133,-3.12461 23.9848,-7.11219 33.74609,-7.91211 l -14.99805,8.02344 -27.49609,17.51172 c -22.49721,16.07301 -41.29503,36.00783 -57.91797,58.20508 -73.35341,100.01264 -82.66476,263.36724 0,361.20504 39.80757,47.6066 94.38788,72.6786 147.90625,101.625 l 62.49219,34.3321 c 7.43658,3.9495 20.08646,11.8612 27.49804,14.0234 -5.88677,-5.4743 -13.23638,-9.0857 -19.99804,-13.3476 l -43.74414,-27.1719 c -52.74347,-32.846 -117.5867,-70.4542 -158.36914,-116.961 -86.08934,-98.1753 -77.41405,-259.9167 11,-353.70504 25.38435,-26.93416 58.36671,-45.13333 92.375,-58.74414 l -28.7461,20.56055 c -19.87254,15.87303 -35.34521,31.2592 -50.31836,51.93164 -28.1965,38.95769 -47.24477,85.78839 -52.36914,133.73239 l -2.29883,24.9981 0,23.7461 2.33594,23.748 c 5.93677,42.8072 20.87269,86.6769 52.65625,117.4356 35.10815,33.9583 76.45227,39.1186 119.98438,54.2168 22.75968,7.899 41.14678,16.3728 62.49414,27.3964 l 27.49609,14.6739 c -6.64917,-7.1741 -28.17225,-19.3968 -37.49609,-24.9961 -20.63495,-12.3735 -41.66992,-23.6219 -63.74219,-33.2207 -31.10865,-13.5233 -69.07884,-28.2338 -93.73828,-51.8184 -29.0839,-27.809 -45.11918,-60.4693 -51.75586,-99.9394 -1.24985,-7.4116 -3.14884,-18.947 -3.23633,-26.2461 -0.31246,-27.4466 0.0868,-47.9811 6.83594,-74.9903 15.98552,-63.892 54.64288,-116.27341 110.64844,-150.99411 8.93639,-5.53681 17.82229,-11.06184 27.49609,-15.23632 -27.77156,23.49708 -38.98106,28.93548 -62.64062,59.99414 -42.49475,55.81809 -62.08151,130.79569 -48.34571,199.97459 6.37421,32.121 20.04751,65.1548 47.24414,85.0899 21.0099,15.3981 46.1078,17.3589 71.24219,17.3964 l 37.49609,2.8497 c 18.14776,2.5746 35.0442,9.1131 51.24219,17.4746 l 16.24805,8.4238 c -5.82428,-6.8742 -15.97206,-12.5486 -23.7461,-17.2481 -20.32248,-12.2609 -40.64504,-19.4225 -63.74218,-24.4218 -33.32087,-7.2116 -58.77997,-7.6366 -86.22657,-31.3711 -24.04702,-20.7849 -38.38285,-64.4059 -38.75781,-95.6895 l 0,-16.248 c 0.0125,-9.8113 1.59903,-20.3098 3.23633,-29.9961 9.91127,-58.9552 45.64532,-111.13528 93.00195,-146.69338 10.99864,-8.27397 28.79569,-20.39832 41.24414,-25.78515 -13.13587,10.49869 -26.99676,20.3226 -38.69531,32.49609 -33.38336,34.7332 -57.31855,78.51524 -65.14258,126.23434 l -2.39843,21.2481 0,19.9961 c 0.05,31.821 13.43524,76.0657 42.49414,92.6386 28.60895,16.323 68.96712,0.1014 99.98828,-1.2734 l 11.24804,1.0117 c 26.44673,1.9373 30.35938,7.7376 52.49415,17.6114 -4.64944,-5.8993 -11.09884,-9.6743 -17.49805,-13.4864 -19.44759,-11.586 -43.79497,-16.4742 -66.24219,-16.5117 -24.02202,-0.037 -53.18028,2.4888 -73.74023,-12.2344 -20.37248,-14.5857 -32.20863,-45.7069 -32.4961,-70.2539 l 0,-19.998 c 0.025,-12.161 2.77463,-24.5851 6.07422,-36.2461 13.84829,-48.869 45.28166,-89.40052 86.41406,-118.73439 11.3111,-8.074 24.74768,-16.97373 37.4961,-22.49804 -16.89791,14.29822 -25.53491,18.57328 -42.44531,36.24609 -28.63397,29.93379 -54.54304,78.96464 -55.04297,121.23434 l 0,12.4981 c 0.0375,25.4468 10.48483,60.4692 36.24414,70.6679 9.47382,3.7497 17.57427,3.1868 27.49804,3.0743 l 68.74024,-10 8.75,0 c 10.62368,0.013 22.62232,2.0747 32.49609,6.0742 l 24.9961,11.4238 c -18.79768,-18.6477 -51.53096,-27.4586 -77.49024,-27.4961 l -44.99414,1.25 c -7.2366,-0.013 -12.97392,-0.6119 -19.99805,-2.5117 -27.28412,-7.3991 -38.70664,-33.6587 -38.74414,-59.9805 l 0,-10 c 0.0875,-17.4978 6.11028,-35.5316 13.35938,-51.2422 23.43459,-50.79361 68.71678,-85.77647 119.12305,-107.48628 l -29.9961,20.55859 c -26.40923,21.0099 -50.83136,50.58183 -61.20508,83.17769 -9.13636,28.709 -11.38518,75.5654 19.96094,91.9883 11.66106,6.1118 23.59571,5.5625 36.24414,5.5 l 47.49414,-3.6992 c 10.33622,-0.325 31.30983,3.2989 41.2461,6.6484 22.30973,7.4991 30.64545,18.5225 41.24414,23.2969 -23.88454,-26.1967 -51.75506,-36.4961 -86.23828,-39.7832 -22.05978,-2.0997 -49.95702,1.0636 -68.74219,-12.4472 -23.63457,-16.9979 -21.07186,-51.3319 -11.49805,-75.254 20.85992,-52.15594 72.66573,-85.3759 123.98438,-102.48628 l -16.24805,9.12305 c -13.09838,7.1991 -26.72243,16.84815 -37.49609,27.17187 -10.09876,9.6738 -19.45907,21.53432 -26.40821,33.69531 -15.77304,27.64655 -20.91068,72.45445 12.66016,89.65235 18.39772,9.4238 48.8823,9.2231 69.99219,13.1602 33.82081,6.2992 53.68022,18.9484 73.74023,47.1699 -0.43745,-9.7238 -18.85951,-28.3602 -26.24609,-34.4219 -29.27138,-23.9845 -56.41909,-21.8467 -87.49024,-33.1328 -19.67256,-7.1491 -33.58297,-18.9969 -34.88281,-41.1817 -0.57493,-9.8487 3.23647,-22.4471 7.52344,-31.24605 4.47444,-9.21136 12.72393,-20.19895 19.87304,-27.49804 11.3361,-11.56107 24.62167,-21.0459 38.73243,-28.91993 14.08575,-7.86152 44.14415,-19.73493 59.99218,-21.07226 -18.31023,8.51144 -30.78371,12.56059 -47.49414,25.52148 -10.03625,7.79904 -16.59702,14.08449 -24.05859,24.47071 -18.91016,26.28424 -20.87145,60.89389 7.8125,81.19139 13.53582,9.5738 29.73353,14.2601 44.99414,20.2969 24.33448,9.6488 46.28166,21.9471 59.01758,45.9941 3.96201,7.4866 5.54786,11.6991 7.22265,19.9981 3.64955,-10.9862 -9.57309,-33.9472 -16.25976,-42.4961 -21.8098,-27.8216 -59.61737,-36.2694 -79.96485,-54.1172 -19.13512,-16.7979 -20.77321,-40.4447 -6.375,-60.86719 6.68668,-9.47383 11.01246,-13.84972 20.11133,-20.98633 10.26123,-8.049 24.00816,-15.29744 36.24414,-19.85938 21.09739,-7.86152 34.23437,-9.9863 56.24414,-12.89843 -12.79841,6.52419 -25.13456,5.82458 -48.74414,21.34765 -22.74718,14.94815 -39.40746,40.88162 -30.30859,68.64058 2.24972,6.8617 6.87399,14.3488 11.33594,19.9981 20.48496,25.9843 67.6286,41.0955 77.77734,83.7402 2.3997,9.7613 0.71241,16.7348 0,26.2461 7.36159,-11.3986 3.3247,-36.9831 -2.28711,-48.7441 -3.39958,-7.0991 -9.01197,-15.3843 -14.23633,-21.2461 -21.23487,-23.7846 -68.37911,-52.0075 -51.15625,-89.99025 2.28722,-5.04937 5.13875,-8.52354 8.92578,-12.49804 6.21173,-6.5117 10.86074,-10.67322 18.69727,-15.16016 10.77367,-6.16174 21.66009,-10.16166 33.74609,-12.86133 21.24737,-4.76191 28.80732,-4.47461 49.99219,-4.47461 -16.66043,5.49932 -25.59639,4.22545 -43.74414,14.13672 -7.14911,3.89952 -13.54756,8.81051 -19.04687,14.82227 -4.31197,4.71191 -7.82528,10.0359 -10.0625,16.03515 -18.42272,49.39385 43.65781,89.16385 53.11914,124.98435 1.42482,5.3994 -0.0876,10.8612 -1,16.2481 -2.36221,14.1107 -1.79999,17.8852 -8.01172,31.2461 0.025,0.013 1.17507,-0.1983 1.75,1.039 0.8249,1.7498 -1.61256,14.9844 -2.0625,17.709 -2.99963,18.5477 -4.89802,37.459 -4.68555,56.2442 l 1.32422,11.248 0,9.9981 c 4.22448,32.9084 13.34743,67.6172 21.02148,99.9882 l 8.90039,38.7461 c -26.12176,3.4496 -17.06159,1.9623 -41.24609,0 10.89865,7.3866 31.20819,4.7604 43.74414,3.7481 1.26234,8.1865 6.73713,22.0221 10.01172,29.9961 1.28734,3.1121 4.53813,8.9992 3.30078,12.2363 -1.92476,5.0244 -20.42371,11.0608 -25.81055,12.9355 -14.81066,5.1369 -30.64607,7.5755 -46.24414,8.4629 -4.8119,0.275 -6.83609,-0.5007 -11.24804,-0.9258 l -16.24805,-1.7871 -16.24805,-3.4238 c 8.36147,5.9868 27.17238,8.4723 37.4961,8.7598 l 9.99804,0.8125 c 10.66118,0 27.14738,-1.8484 37.4961,-4.4356 l 18.74609,-5.6621 18.74805,-6.9746 c 1.83727,6.2867 5.42464,11.9238 8.82422,17.4981 1.5748,2.5746 4.7753,6.7371 4.08789,9.8867 -0.76241,3.5495 -7.44998,7.3112 -10.41211,9.2734 -12.43596,8.299 -16.58526,10.7981 -29.9961,17.3848 -24.2095,11.911 -56.69358,20.6223 -83.74023,20.9472 -17.63532,0.2 -35.4443,-1.8236 -52.49219,-6.4355 l -21.24804,-6.0625 c 7.91152,6.1117 30.92042,11.6483 41.24414,13.4355 39.88255,6.9242 81.50344,1.9504 118.73632,-13.9726 l 27.4961,-13.9609 14.98633,-9.1114 c 1.32483,-0.3874 2.19977,-0.5249 3.53711,0 3.54956,1.3874 13.72328,16.111 12.52343,19.8106 -0.86239,2.6871 -6.31159,6.874 -8.54883,8.8613 l -24.99804,20.084 c -35.94555,26.4592 -78.95243,45.1207 -123.73438,48.6953 l -12.49804,1.1484 c -15.51058,0.175 -30.94604,-0.4995 -46.24414,-3.2617 l -21.24805,-4.4238 -18.74805,-4.8125 c 9.19886,5.9742 32.42055,10.7358 43.74414,12.998 50.43125,10.0863 105.07564,1.5375 151.23242,-20.8222 19.09764,-9.2489 36.84429,-21.1344 53.74219,-33.8828 3.58706,-2.7122 14.38567,-13.1479 18.53516,-11.8106 2.18723,0.7124 4.62556,4.2362 6.02539,6.0234 1.82477,2.3248 6.02501,7.0754 6.125,10 0.12498,3.8496 -7.03784,10.4363 -9.75,13.211 -20.80992,21.2723 -42.77021,42.4935 -67.17969,59.6289 -37.84531,26.5592 -78.7526,41.982 -124.98437,44.7441 l -17.49805,1.1133 -11.24805,-1.0996 -23.74609,-1.7246 -32.49609,-5.8867 c 6.01175,3.5745 15.57195,5.1107 22.49609,6.498 13.77329,2.7497 34.90835,5.975 48.74414,6 l 17.49805,0 14.99804,-1.1387 c 41.60735,-3.0371 84.04063,-17.8216 118.73633,-41.0312 20.54746,-13.7483 39.86937,-29.1963 57.49219,-46.5566 l 13.36133,-13.1231 c 1.77478,-1.6498 4.16165,-4.387 6.86133,-3.7246 4.69941,1.1499 16.64863,15.6346 15.11132,20.584 -0.88739,2.8496 -16.67343,21.186 -19.81054,24.998 l -45.18164,56.2422 c -42.53223,49.6064 -101.81389,74.5403 -166.56836,74.9903 l -36.24414,0 c 10.79866,4.3244 35.32064,2.6499 47.49414,2.5 54.74321,-0.6375 106.19839,-15.6234 149.98046,-49.3692 16.38548,-12.6359 38.77081,-36.8942 52.18165,-53.1172 7.07412,-8.5489 28.50912,-34.3471 32.80859,-42.4961 l 26.24609,22.4981 -20.38476,42.4941 c -9.66131,27.1467 -14.5103,55.9807 -31.40821,79.9903 -24.9969,35.5206 -70.35319,57.4062 -111.93554,66.7675 -9.37384,2.1123 -19.17424,4.9372 -28.74805,5.7246 5.22435,1.9123 13.22373,-0.238 18.74805,-1.1503 14.81066,-2.4497 29.40841,-6.0498 43.74414,-10.4493 42.35725,-13.0234 84.47771,-35.6453 109.53711,-73.3906 13.17337,-19.835 21.59752,-45.3324 30.20901,-67.4922 l 10.2363,-23.7461 c 9.8113,8.424 20.4974,15.7466 31.2461,22.9082 4.3495,2.8997 13.8484,8.4364 16.623,12.211 l 10.2227,23.623 c 8.6239,16.473 17.1109,29.4715 16.8984,48.7442 -0.1999,17.6353 -11.8112,35.2456 -23.7597,47.4941 -20.8974,21.4223 -39.8943,34.8084 -66.22855,48.7441 4.64945,0.3125 10.88605,-3.2866 14.99805,-5.5488 l 26.2461,-15.4609 c 39.4826,-24.522 90.2148,-70.8666 71.2422,-122.7227 l 37.4941,14.9356 c 29.5339,10.7861 87.8901,26.0336 118.7364,26.3086 l -14.9981,24.998 c 4.8869,-4.6369 17.6348,-21.5232 21.3594,-22.748 4.9119,-2.1998 16.5355,0.1749 22.3847,0 22.9597,0.5124 45.9451,0.1375 68.7422,-2.5997 54.8682,-6.6116 108.7365,-22.422 157.4805,-48.7812 43.8696,-23.7221 86.7391,-53.568 124.9844,-85.5391 l 34.9941,-31.5586 c 3.812,-3.812 12.6362,-13.7235 17.4981,-14.8984 7.2241,-1.7623 17.7236,11.374 22.498,16.1484 l 45.3438,48.7442 c 7.449,8.4489 14.1104,16.1606 25.8964,10.1113 l 22.4981,-14.0996 c 4.1495,-2.5747 9.812,-5.6111 12.3242,-9.873 5.9243,-10.0363 -0.8266,-15.3982 -7.1133,-22.3848 l -7.7597,-8.75 -46.1954,-46.2442 c -3.612,-3.612 -17.5735,-16.3098 -18.7734,-20.1093 -1.4873,-4.7119 1.8129,-8.9122 4.5625,-12.3867 l 21.7598,-23.584 c 3.1746,-2.8872 6.7248,-5.2499 11.1992,-3.9375 4.9494,1.4623 12.2985,9.95 16.248,13.7246 l 34.9961,32.5449 29.9961,28.7461 c 3.7746,3.7745 15.0985,15.5745 18.7481,17.8242 10.6112,6.5617 26.2077,-6.9624 34.9941,-12.8242 l 8.6992,-5.9492 c 4.2495,-3.3871 6.8499,-7.1121 6,-12.7989 -1.1873,-7.8865 -18.4105,-21.446 -24.6972,-27.4453 l -61.2422,-57.5429 c -4.7494,-4.7494 -18.7609,-16.9239 -18.336,-23.7481 0.4625,-7.3866 15.4242,-18.8225 20.836,-23.8594 4.6619,-4.3369 12.5343,-13.5985 18.7461,-14.8359 5.2868,-1.0624 8.75,2.6626 11.9746,6.2246 l 19.4844,21.2227 12.1738,12.498 51.3555,51.457 c 6.6741,6.0369 17.4616,19.5096 26.248,20.7344 6.3242,0.8874 11.3237,-3.0379 16.2481,-6.375 l 11.248,-7.8984 c 8.6114,-5.8618 20.2733,-13.3734 12.8242,-25.4219 l -30.3222,-31.2461 -52.6055,-56.2422 -25.4981,-26.248 c -6.9241,-10.0613 4.0872,-18.4469 10.6114,-24.9961 l 10.3496,-11.2481 c 3.487,-3.9245 8.7491,-10.0877 14.6484,-8.6503 3.5246,0.8498 7.2734,4.701 9.9981,7.0507 l 22.498,21.2461 c 25.4469,22.4347 47.7943,48.3449 71.1914,72.8418 l 25.2578,26.5703 c 10.7487,7.3491 30.5344,-9.5729 39.7832,-15.3847 3.5121,-2.2123 9.0249,-5.1735 11.0371,-8.8106 6.6367,-12.0485 -12.311,-27.397 -19.7851,-34.8711 l -49.9942,-49.9433 -37.4961,-34.9961 -22.4726,-21.2969 c -5.2619,-5.4743 -9.4486,-10.1365 -4.3867,-17.498 3.537,-5.1369 19.0225,-19.4858 24.3593,-24.0977 3.4371,-2.9746 7.6506,-7.5488 12.5,-7.5488 4.5245,0 8.211,3.7492 11.2481,6.6738 l 21.248,22.4727 74.9903,71.1914 14.998,13.7968 21.2461,21.2481 c 3.7371,3.737 8.5632,9.3236 13.75,10.7109 8.074,2.1623 14.9469,-3.186 21.2461,-7.373 l 39.9961,-26.7344 99.9863,-69.2422 c 16.273,-11.2736 35.4336,-20.8101 48.0196,-36.0957 l 20.8222,-24.9961 c 3.5246,-4.237 8.6615,-9.4612 9.6114,-14.998 1.5623,-9.0239 -3.9867,-12.9488 -9.711,-18.7481 l -19.998,-21.248 -13.7481,-12.5469 -17.498,-17.3359 -74.9903,-71.3536 -26.1972,-26.248 c -5.5118,-5.6743 -9.973,-11.17185 -18.7969,-7.82227 -4.5744,1.73729 -10.186,8.03517 -13.748,11.57227 l -17.4981,16.248 -68.7285,72.4922 -20.0098,21.2461 c -2.8746,2.8497 -7.263,7.6861 -11.25,8.6485 -4.6494,1.1373 -8.0109,-2.0867 -11.248,-4.8614 l -18.7481,-17.5351 -31.2461,-28.8594 -44.9941,-43.6309 -18.7227,-18.748 c -3.0121,-3.1371 -6.6869,-6.4611 -5.6621,-11.24805 0.9249,-4.37445 6.2621,-9.4117 9.3868,-12.48633 l 27.496,-25.22265 16.2481,-15.98438 28.6973,-27.54687 16.2968,-17.49805 17.5118,-18.74805 c 3.8495,-3.94951 12.4967,-12.82362 14.7714,-17.49804 3.3871,-6.96164 -0.249,-12.41118 -4.8984,-17.49805 l -27.3848,-27.49609 -78.6894,-82.49024 -18.7988,-19.99804 -22.4961,-21.2461 c -4.762,-4.72441 -8.974,-9.97499 -16.2481,-9.875 -7.2116,0.0875 -13.3612,6.80054 -18.748,11.125 l -29.7715,23.95899 c -2.6372,2.68716 -5.3241,6.66249 -7.5488,9.78711 l -65.5801,91.23828 -30.6446,49.99414 -20.1855,33.74609 c -2.6122,4.33696 -7.7993,11.50918 -8.4492,16.2461 -0.9499,6.79915 2.9368,10.37557 7.1113,15 l 20.0723,21.24609 41.3711,44.99414 43.6308,43.7461 26.1973,24.9961 c 5.7243,6.0242 9.386,9.9615 3.4492,17.498 l -22.1973,23.7227 c -2.9246,2.9496 -6.7478,6.6738 -11.1972,6.6738 -4.5245,0 -8.2129,-3.7492 -11.25,-6.6738 l -19.9961,-18.7734 -79.9903,-76.1915 -24.998,-26.22066 c -4.3495,-4.22447 -8.4239,-8.22448 -14.998,-7.22461 -5.2744,0.79991 -8.0485,4.44972 -11.0606,8.44922 -5.1369,6.84915 -19.3364,24.77205 -20.0488,32.49605 -0.2625,2.8872 0.026,6.1234 1.3262,8.7481 2.3497,4.6994 23.1213,23.4475 28.5332,28.7344 l 28.746,26.3711 49.9942,48.6328 18.5098,18.748 c 2.4746,2.8497 5.8503,7.2486 5.5253,11.2481 -0.3374,4.2369 -4.9499,8.3734 -7.7871,11.248 -5.3368,5.4118 -20.6218,20.4724 -26.2461,24.3594 -2.6496,1.8373 -5.5004,3.062 -8.75,2.0996 -6.2867,-1.8498 -19.6466,-18.5097 -24.9961,-23.959 l -40.0078,-42.4941 -33.7324,-32.4961 c -7.2366,-7.1491 -21.1478,-23.1858 -32.2715,-15.3242 -3.3246,2.3497 -6.3498,8.0246 -8.4746,11.5742 -5.0244,8.3739 -16.3356,22.6348 -13.7109,32.4961 2.0997,7.899 19.4984,23.5594 25.6601,29.9961 l 56.293,59.9922 17.4981,17.498 c 2.5871,2.6372 6.511,6.3234 7.3984,9.9981 1.2623,5.1743 -2.9609,9.0253 -6.0606,12.5 l -20.4355,22.4335 c -3.712,3.8871 -7.8491,7.0372 -13.3984,4.625 -4.2495,-1.8622 -23.0592,-20.2099 -27.4961,-24.5468 l -12.5,-11.3106 -37.4942,-37.4453 c -6.4367,-6.4367 -20.7221,-24.7349 -28.7461,-25.9473 -5.0493,-0.7624 -8.5867,1.2239 -11.9238,4.836 l -16.3984,22.3613 c -2.9747,4.3995 -6.0372,8.2987 -6.5371,13.7481 -1.1374,12.3109 10.7748,18.6212 18.6113,26.2578 l 58.7422,55.0312 c 4.6244,4.4245 19.7217,18.4479 21.2715,23.6973 0.9748,3.3121 -0.037,6.0109 -1.9122,8.748 -4.4244,6.4242 -19.1976,18.8352 -25.6093,24.9844 -3.2621,3.1246 -7.5862,7.5992 -12.4981,7.3867 -6.4367,-0.2749 -13.6239,-10.3486 -17.7109,-14.873 l -41.0313,-41.2442 c -5.5368,-5.5368 -21.6343,-21.7227 -27.4961,-25.3222 -4.5619,-2.7997 -11.2989,-3.1238 -15.2734,0.8633 -1.6373,1.6497 -5.6998,8.3612 -7.1621,10.7109 -4.7619,7.6115 -16.2233,22.5222 -14.7734,31.2461 1.1873,7.1866 10.899,16.1737 15.9609,21.248 l 33.7949,36.2442 15.0488,16.248 c 2.8623,3.1246 7.0493,6.8611 7.6993,11.2481 1.1248,7.5615 -12.6741,18.3112 -17.586,23.748 -15.0231,16.598 -45.3823,45.7187 -63.955,57.4922 l 2.5,-24.9961 0,-7.5 c -0.025,-13.3608 -2.2982,-35.2941 -18.7461,-37.9687 -2.8122,-0.4625 -8.3629,0.3114 -11.25,0.8613 -4.3495,0.8249 -8.4986,2.4631 -12.4981,4.3379 -30.6837,14.3982 -57.2422,36.6566 -88.7383,49.5176 -15.4356,6.2992 -40.2587,16.1476 -50.7324,-3 -5.1868,-9.4989 -4.3867,-24.333 -4.2617,-34.9942 0.175,-14.3732 7.8125,-55.1317 10.7246,-71.2422 7.2241,-40.1075 15.0091,-80.6644 19.0586,-121.2343 4.9744,-49.7065 6.0744,-102.7242 1.25,-152.4805 l -8.2852,-54.9942 -5.25,-24.9961 c 3.987,8.2115 7.5363,23.2723 9.836,32.4961 l 11.9238,56.2422 c 5.4118,32.2585 9.3623,64.8549 10.7871,97.4883 l 1.1992,13.7481 1.25,51.2441 1.25,26.2461 0,16.248 1.25,17.4981 c 0.1625,14.4607 1.6376,36.2333 5.5371,49.9941 2.0373,7.2116 4.9607,15.2356 12.0723,18.8477 8.6239,4.3994 18.6357,0.1 26.1348,-4.7246 15.9855,-10.2738 29.9209,-26.5835 41.3945,-41.6192 31.2836,-41.0324 54.7174,-92.6527 75.0273,-139.9843 l 21.9356,-49.9922 c 4.337,-9.1239 10.4373,-21.6223 17.9863,-28.334 17.2729,-15.3606 29.8211,6.2608 36.1328,20.834 1.1374,-6.2618 -3.7628,-15.6238 -6.5625,-21.2481 -6.1992,-12.4984 -19.2731,-35.5323 -35.9336,-22.1465 -2.7746,2.2248 -5.6741,5.5363 -7.7988,8.3985 -9.7863,13.1483 -23.0083,46.1942 -30.0449,62.4922 -16.148,37.4078 -32.3719,74.703 -55.0567,108.7363 -10.2362,15.3481 -17.3606,24.5719 -30.8339,37.4453 -5.0369,4.8119 -12.8615,11.3868 -19.9981,12.2617 -11.9485,1.4748 -18.7973,-10.1621 -22.4219,-19.7109 -6.1367,-16.198 -9.9361,-54.28 -11.2109,-72.4902 -5.0744,-72.5412 -11.0352,-144.5064 -30.6328,-214.9727 -7.7116,-27.6966 -16.8615,-54.63104 -27.7227,-81.24024 l -16.748,-37.49609 c 8.7614,12.21098 23.7106,42.97094 30.3848,57.49414 19.0726,41.54489 34.6087,84.03979 48.7695,127.48439 l 16.8711,52.4922 c 5.5118,16.0855 14.8246,41.1583 24.0859,54.9941 4.5994,6.8742 12.0722,14.6233 21.1211,13.4609 9.1364,-1.1623 17.7486,-12.3368 22.2481,-19.7109 12.111,-19.91 18.2346,-42.5825 23.8339,-64.9922 7.1117,-28.4465 9.5362,-57.1544 11.5235,-86.2383 l 1.1387,-14.998 0,-43.7461 -1.25,-23.74609 -1.1387,-12.49805 c -2.5247,-36.12053 -8.0472,-71.76575 -13.959,-107.48633 l -10,-67.49219 -1.0996,-10 c -0.275,-8.89889 1.7254,-22.94613 11.1992,-26.4082 4.137,-1.73728 9.4611,-0.39995 13.7481,0 -6.4492,-6.72417 -23.7233,-14.38539 -32.0723,-6.79883 -4.6994,4.27447 -5.3488,11.00972 -5.4238,16.95899 l 0,13.75 c 0.025,18.99764 12.3731,81.0143 15.9101,104.98632 9.2239,62.66725 15.0122,126.95938 5.8633,189.97658 -3.1871,21.9848 -8.6118,51.6926 -18.998,71.2402 -3.8497,7.2366 -12.7231,19.6855 -22.0469,18.8106 -9.0239,-0.8499 -17.2361,-11.7115 -21.6856,-18.8106 -12.0235,-19.1476 -21.5467,-46.2678 -30.0332,-67.4902 l -15.8105,-41.2461 c -15.5231,-38.82021 -32.9089,-77.44083 -53.7188,-113.73633 -14.3982,-25.10939 -30.1845,-49.33061 -47.5449,-72.49024 l -26.9082,-33.74609 c 32.8709,32.87092 62.067,68.55349 89.2637,106.23633 15.1356,20.9474 47.1563,67.50474 63.2168,83.74023 8.8114,8.8864 22.4478,22.1606 36.2461,19.7109 6.3992,-1.1248 10.5354,-6.6241 13.0976,-12.2109 4.6369,-10.0987 6.8879,-25.15997 6.9004,-36.24609 l 0,-23.7461 c -0.038,-25.55933 -9.5489,-68.59335 -16.4355,-93.74023 -9.0364,-33.02091 -22.0863,-65.45264 -36.9844,-96.23633 l -6.8984,-14.99805 c -34.3958,-67.11668 -76.2784,-124.24807 -125.3848,-181.22851 l -70.7539,-79.99024 c -5.9993,-7.52406 -17.5216,-22.94727 -18.5215,-32.49609 -0.4874,-4.73691 1.1244,-8.12359 2.5117,-12.49805 -18.2852,3.48707 -13.1488,19.43506 -6.4121,31.2461 9.6738,16.9354 42.1209,51.80663 56.4941,67.49218 70.5538,76.95297 134.4452,162.60402 171.2032,261.2168 10.6736,28.63395 25.8211,79.90256 26.1836,109.98633 0.1374,11.68605 -0.2617,25.6849 -5.836,36.24609 -3.487,6.59918 -8.8486,11.09902 -16.6601,9.51172 -9.9488,-2.02475 -21.7739,-13.78563 -28.7481,-20.75976 -18.4852,-18.48521 -34.2829,-39.72165 -50.7558,-59.99415 -35.0582,-43.13215 -77.0781,-88.51367 -120.4727,-123.23437 -12.2485,-9.79879 -38.0188,-30.29689 -51.2422,-36.74609 6.8992,1.02487 11.6093,4.71293 17.4961,8.25 l 26.2481,16.33593 37.4941,25.0586 52.4941,37.00781 c 13.3109,8.8864 35.0837,23.88524 51.2442,24.53516 29.6963,1.18735 23.6474,-35.07067 18.5605,-53.69336 l -3.5625,-11.24805 C 1338.2844,706.53833 1292.0405,645.87055 1249.8457,603.67578 1177.0297,530.8598 1097.9758,480.72744 1003.625,440.48242 959.93041,421.83473 914.28692,407.24917 868.64258,394.23828 L 778.6543,367.8418 c -22.05977,-7.86153 -25.67225,-14.26022 -34.9961,-17.88477 z m 1738.875,30.13086 c -1.9948,-0.0125 -4.2054,0.34385 -6.5898,1.14063 -5.9368,3.94951 -23.0093,20.48391 -28.7461,26.2207 l -48.8575,51.24414 c -5.7992,6.22423 -23.4216,22.24705 -24.5839,29.99609 -1.3999,9.31135 8.2358,17.49765 17.1972,14.24805 4.487,-1.6248 12.586,-10.54851 16.2481,-14.24805 l 25.209,-27.49609 32.496,-34.99609 24.4981,-24.9961 c 8.3837,-10.2292 3.9011,-21.04595 -6.8711,-21.11328 z m 49.4004,49.9668 c -1.9316,0.0225 -3.9682,0.32584 -5.9961,0.8164 -8.2115,4.27447 -27.5853,27.24632 -35.1094,35.32032 l -41.1308,42.49609 -23.211,23.74609 c -7.1366,9.82379 -0.1125,24.0476 11.961,20.43555 6.4617,-1.93726 16.7612,-13.48655 22.498,-18.46094 l 61.2422,-63.21679 c 3.2996,-3.37459 18.2603,-19.45897 19.7852,-22.4961 1.2873,-2.59968 1.5991,-5.88785 1.3242,-8.75 -0.7312,-7.49907 -5.5685,-9.958 -11.3633,-9.89062 z m 52.7852,48.99219 c -1.5697,-0.0273 -3.2565,0.15278 -5.0391,0.56835 -7.6616,3.98701 -10.6851,9.23748 -16.3594,15.32422 l -23.6348,23.7461 -44.9941,42.38281 c -4.4869,4.17448 -20.0226,17.72198 -22.8223,21.70898 -6.9991,9.97377 2.5987,22.16015 14.0723,18.93555 7.2866,-2.04975 21.9344,-19.098 28.7461,-25.00977 l 39.9961,-37.80664 c 7.9615,-7.2116 34.0823,-31.5349 39.1816,-38.95898 7.1304,-10.3784 1.8411,-20.69976 -9.1464,-20.89062 z m 49.0781,48.77929 c -1.3417,0.0273 -2.7287,0.20981 -4.1231,0.53321 -8.2614,4.22447 -31.8076,27.45995 -39.9941,35.27148 l -28.7461,26.4082 -16.2481,16.08594 -17.3867,16.29883 c -3.487,3.76203 -7.7243,8.53619 -8.5742,13.74805 -1.6123,9.87377 6.2746,17.04811 15.9609,14.46093 7.2866,-1.94976 20.1863,-18.38669 26.2481,-24.46093 l 28.7461,-28.69532 33.7461,-31.34765 9.998,-9.83594 c 5.6368,-5.26185 13.5491,-9.92298 12.1992,-18.85938 -1.0459,-6.9257 -6.0122,-9.72595 -11.8261,-9.60742 z m -242.6504,42.44727 c -1.195,0.0513 -2.4994,0.23168 -3.9414,0.55664 -8.549,4.09949 -14.5614,11.30979 -21.2481,17.83398 l -21.248,20.00977 -86.2891,91.24023 -31.1953,31.2461 c -3.737,3.73703 -12.5732,11.67361 -14.248,16.24804 -2.1998,5.98676 0.6733,12.22175 3.3105,17.4961 l 16.2109,29.99804 c 4.4495,8.43646 8.8246,13.89716 1.9004,22.4961 l -10.8105,11.24804 -24.9981,26.24805 -41.4062,44.99414 -36.1973,36.2461 -32.4941,31.24609 c -3.6246,3.59955 -10.1368,8.68501 -10.9492,13.79687 -1.2624,8.03651 5.8498,14.77291 10.9492,19.94727 l 34.9941,36.2207 c 4.9244,4.7869 11.2615,10.5993 18.7481,7.8496 4.6244,-1.7123 11.336,-9.1602 14.998,-12.8223 l 27.4961,-27.3847 79.9903,-75.10353 42.707,-44.35743 c 7.0616,-5.42432 14.4735,-0.62375 21.0351,3.11328 l 32.4961,18.5586 c 5.4244,3.08712 11.0239,6.70087 17.4981,4.26367 5.1493,-1.93726 13.2356,-11.02475 16.9726,-15.32422 l 23.0352,-24.99609 39.9941,-42.4961 23.7364,-22.54687 33.7441,-32.33203 31.2461,-28.87305 c 4.6119,-4.56193 9.5241,-9.12275 8.4492,-16.23437 -0.8499,-5.61181 -5.8747,-9.91103 -9.6992,-13.74805 l -22.4961,-21.24805 -95.1016,-91.23828 -19.7714,-19.99805 c -6.1243,-6.57262 -9.0534,-12.51331 -17.418,-12.15429 z m 288.8945,6.29687 c -1.3417,0.0274 -2.7287,0.20981 -4.123,0.53321 -11.3486,5.81178 -21.6848,18.96044 -31.2461,27.60937 l -23.6973,22.70899 -11.3105,12.49804 -33.1465,34.9961 c -3.2746,4.06199 -6.0617,8.28622 -5.3867,13.74804 0.9623,7.77404 9.9247,13.17467 17.2988,10.5 6.4242,-2.32471 19.6975,-18.62374 25.0469,-24.24804 l 27.5586,-29.9961 16.0234,-16.24804 12.6113,-13.74805 c 7.0117,-7.03663 23.7971,-18.1849 22.1973,-28.7461 -1.046,-6.9257 -6.0122,-9.72595 -11.8262,-9.60742 z m 47.3574,49.96094 c -1.2874,0.0542 -2.624,0.24145 -3.9863,0.56641 -9.2613,4.8244 -15.2845,14.26067 -22.4961,21.57226 l -53.7441,57.49219 -17.4981,17.49805 c -3.537,3.58705 -7.6618,7.26119 -8.4492,12.49804 -1.3373,8.9239 7.5003,17.17384 15.9492,14.07422 4.037,-1.48731 15.236,-11.91136 18.7481,-15.33594 l 52.6054,-54.98046 24.3457,-26.2461 c 2.7247,-3.1871 6.4127,-7.1755 7.5,-11.25 2.7122,-10.18155 -3.9622,-16.26785 -12.9746,-15.88867 z m 53.0918,48.96094 c -1.0844,-0.008 -2.195,0.10354 -3.334,0.34961 -6.7991,3.53706 -26.6094,25.68369 -33.746,32.82031 l -37.4961,37.44531 -31.2461,28.8086 -26.2461,24.95898 c -3.6871,3.54956 -8.0874,7.87407 -13.6992,6.69922 -4.312,-0.89989 -8.2985,-6.09921 -11.3106,-9.17383 l -19.998,-21.24609 c -5.7368,-5.83678 -11.1605,-11.14881 -19.9844,-7.82422 -5.3743,2.02475 -15.6861,12.28529 -19.9981,16.57226 l -27.4961,26.24805 -32.3828,32.49414 -71.3535,76.24219 -34.9961,34.7832 c -3.6495,3.29959 -11.6861,11.01066 -16.248,11.87305 -5.6368,1.06237 -12.9736,-4.53669 -17.4981,-7.48633 -6.5117,-4.22448 -31.7843,-20.56074 -37.4961,-22.12305 -8.0865,-2.21222 -12.1592,2.87524 -17.4961,7.91211 -7.2116,6.79916 -15.9611,11.23656 -14.8613,22.53516 0.6624,6.78666 5.3732,10.38612 9.8477,14.99805 l 16.2617,17.49804 13.7988,14.99805 29.9453,29.9824 32.4961,30.1211 18.7481,17.4238 c 5.5368,5.2244 10.3741,10.4361 18.748,8.1739 4.7619,-1.2874 7.0488,-4.7739 10.211,-8.211 l 17.3339,-18.748 68.6934,-69.9785 84.9883,-80.00393 12.5488,-13.74805 55.0547,-58.74219 46.1328,-46.24414 66.2422,-62.49219 c 5.1244,-5.12436 19.9976,-17.92361 22.8223,-22.49804 3.1996,-5.16186 2.3749,-10.21114 -1.0371,-14.99805 -2.2498,-3.14961 -7.625,-8.33591 -10.5372,-11.24805 -6.9206,-6.92062 -14.9292,-18.0918 -25.4121,-18.17187 z m -1914.34762,285.63867 13.74804,0 c -0.57492,1.82477 -0.549,2.79902 -1.98632,4.36133 -1.93726,2.11224 -16.34778,6.49944 -20.50977,8.32422 -11.94852,5.26184 -21.29883,13.28697 -27.62305,24.81054 -8.62393,15.74805 -6.74748,35.83175 -2.18554,52.49215 l 5.79883,18.7481 -3.48829,28.7461 c -4.0245,-3.0121 -5.52451,-8.1486 -7.88671,-12.4981 l -11.68555,-18.748 c -7.36159,-11.2736 -15.2849,-23.3832 -19.48438,-36.2442 -1.36233,-4.1744 -3.07423,-13.136 -3.32422,-17.498 -2.27471,-39.97005 47.39333,-52.44415 78.62696,-52.49414 z m -5,34.99609 -9.46094,21.24605 -9.28516,24.9981 c -3.49956,-5.4493 -1.90032,-7.6863 -1.33789,-13.7481 1.33734,-14.4357 6.77314,-25.6219 20.08399,-32.49605 z m 102.48828,22.49605 28.74609,7.5 -16.24804,1.3614 -16.24805,2.3886 3.75,-11.25 z m 19.5957,35.2012 c 16.5234,0.2045 36.03644,5.5805 49.14644,12.293 -5.5368,2.1997 -11.6612,0.7876 -17.498,1.625 -9.1614,1.3123 -19.97398,5.212 -27.49805,10.6113 -13.79829,9.8738 -21.58435,24.9097 -27.74609,40.2578 -10.89865,27.1717 -13.43628,47.5688 -16.21094,76.2403 l -2.28711,22.498 -2.5,0 0,-27.4961 1.20117,-16.248 6.09961,-71.2422 3.43555,-28.7461 c 0.59993,-3.762 1.02572,-8.8486 3.71289,-11.711 4.16199,-4.3994 13.4851,-6.3997 19.29688,-7.3496 3.37927,-0.5507 7.03456,-0.7796 10.84765,-0.7324 z m 39.57614,43.5684 c 5.714,0.1054 12.0628,1.0064 17.0684,2.0469 9.4113,1.9747 18.9346,4.7868 27.4961,9.1738 l -17.4981,3.623 c -7.1241,1.7623 -16.6718,6.351 -22.4961,10.7754 -17.8727,13.5608 -25.5973,28.6837 -35.30855,48.0938 -14.73567,29.4838 -18.82263,44.1065 -28.08398,74.9902 l -10.34766,33.7461 c -3.68704,-5.1494 -8.63758,-22.2594 -9.3125,-28.7461 -0.52493,-5.0869 1.61304,-10.0862 2.77539,-14.998 l 6.02344,-29.9981 c 5.16186,-30.7712 11.47376,-81.7386 39.25781,-100.4863 7.51157,-5.0744 16.07225,-7.1747 24.99605,-8.0371 1.6905,-0.1656 3.5251,-0.2188 5.4297,-0.1836 z m 298.2832,22.4687 2.5,44.9942 0,36.2461 -1.25,26.2461 -1.1367,12.498 c -2.1122,30.1588 -6.4995,60.1814 -11.6738,89.9902 l -22.0352,102.4864 c -6.4492,27.1716 -14.1846,54.5437 -16.1718,82.4902 -0.2625,3.6995 0.4368,7.611 1.1367,11.248 5.3868,27.8841 34.5457,20.9847 53.6308,13.4981 28.1965,-11.0736 53.4184,-27.97 78.7403,-44.3555 l 33.7461,-21.4355 c 12.4359,-6.5617 33.6836,-16.448 43.2949,0 4.2745,7.0616 7.9861,31.1462 3.1367,38.3203 -2.6497,3.912 -12.1361,9.373 -16.4355,11.9726 -14.9357,9.0114 -25.4231,14.4869 -41.2461,21.711 -51.1812,23.3596 -109.1605,33.3949 -164.9785,26.7207 -15.5858,-1.8623 -45.2064,-7.0364 -58.7422,-13.9356 6.0742,-30.1212 34.0817,-92.8882 47.1425,-123.7343 19.6851,-46.4943 36.0473,-94.9385 48.9082,-143.7325 8.7865,-33.3708 18.5337,-90.8136 18.9336,-124.9843 l 1.2012,-12.4981 0,-14.998 c 0.05,-5.6743 -0.7509,-13.5862 1.2988,-18.7481 z m -260.4082,25.2891 c 11.7961,0.041 23.5388,2.9354 36.6856,4.707 -3.4871,5.1744 -13.0718,6.849 -18.7461,9.8614 -9.4738,5.0243 -22.6111,14.7857 -29.7852,22.6347 -14.6107,15.998 -27.9326,38.707 -38.9687,57.4922 l -31.54689,58.7441 -9.68555,18.7461 -2.5,0 -6.97461,-19.9961 c -0.66242,-4.6619 1.53809,-8.3005 3.15039,-12.5 l 8.82227,-23.746 c 8.28647,-24.8472 18.37271,-53.6681 31.43359,-76.2403 7.3241,-12.6484 16.6622,-25.7344 29.8105,-32.7461 9.9246,-5.2931 19.13,-6.9885 28.3047,-6.957 z m 237.9121,44.7031 c 0,22.9472 -6.9127,60.8161 -11.9746,83.7383 -15.1731,68.729 -39.0704,132.3595 -68.4043,196.2266 l -38.3574,79.9902 c -11.686,-2.7497 -25.4099,-11.0362 -36.2461,-16.2481 2.9622,-7.7615 8.7752,-15.3989 13.2246,-22.498 l 26.709,-42.4941 c 19.2351,-30.7212 44.8445,-77.2154 60.3301,-109.9864 14.3607,-30.3837 30.6843,-71.4173 39.5332,-103.7382 l 10.1855,-41.2442 c 1.2999,-6.4242 2.6628,-18.2843 5,-23.7461 z m -173.7285,1.2481 -23.748,18.0351 c -15.9605,13.2609 -25.2833,23.2985 -38.1817,39.459 l -27.3339,37.4941 -23.5723,32.4961 -28.39649,38.7461 c -2.52469,-4.5619 -9.59996,-18.9736 -9.25,-23.748 0.27496,-3.9745 5.36158,-12.4485 7.42382,-16.2481 l 18.26177,-32.4961 c 17.8102,-31.2086 40.157,-72.9275 74.8027,-86.9257 17.3978,-7.0242 31.8089,-6.8125 49.9941,-6.8125 z m 24.9961,33.7461 c -3.6245,7.6615 -12.6488,15.1488 -18.748,21.248 l -30.9082,33.7461 -65.6426,81.2402 c -6.9241,8.324 -24.9595,30.2824 -32.1836,36.2442 -2.57468,-4.4745 -11.723,-20.5592 -11.37305,-24.9961 0.29997,-3.8245 6.68734,-11.736 9.16215,-14.9981 l 23.2968,-31.2461 c 17.9603,-23.922 38.8448,-52.1194 62.6543,-70.1171 18.7102,-14.1485 41.595,-23.7221 63.7422,-31.1211 z m 118.7364,10 c -0.6502,7.674 -4.7249,20.8718 -6.9747,28.7461 l -19.7734,57.4921 c -19.7226,49.7314 -44.3441,97.0131 -72.5156,142.4825 l -24.0586,37.4961 -15.4121,22.496 c -9.4988,-2.2622 -19.5096,-10.5987 -27.4961,-16.248 2.6996,-7.9865 19.5234,-27.0451 25.7226,-34.9941 l 50.5176,-68.7422 c 32.8709,-49.0814 42.208,-64.6679 68.4297,-117.4864 l 21.5606,-51.2421 z m -92.4903,16.248 -55.9922,73.7402 c -29.9838,37.4829 -59.5799,75.2282 -92.7383,109.9864 -4.3494,-3.4246 -16.2491,-18.2113 -15.9492,-23.7481 0.2125,-3.762 6.0121,-9.6859 8.5117,-12.498 l 22.961,-26.2461 c 33.0209,-38.5702 52.7804,-61.0434 93.2129,-92.752 8.1615,-6.3992 31.7826,-25.7077 39.9941,-28.4824 z m 58.7442,9.9981 c -1.3124,7.0116 -4.7254,13.4613 -7.5,19.998 l -22.1836,46.2441 c -25.9968,51.9811 -77.2411,126.0965 -115.2989,169.9786 -5.7243,-3.6246 -12.5119,-8.9241 -17.4238,-13.586 -2.3622,-2.2372 -4.762,-4.1364 -3.7246,-7.7109 1.0249,-3.5371 14.186,-17.5852 17.498,-21.1973 l 36.8711,-42.4961 c 23.8596,-28.2465 52.0554,-62.3045 72.9903,-92.4883 l 24.9609,-37.4941 c 3.8745,-6.1992 8.9862,-16.4361 13.8106,-21.248 z m -31.2461,2.5 c -2.5872,9.0488 -8.2006,16.9845 -13,24.996 l -25.334,39.9961 c -28.2965,42.4573 -73.5779,103.1619 -109.1485,138.7325 -4.7619,-3.4121 -20.4103,-16.2364 -18.4355,-22.4981 1.0374,-3.3371 12.9109,-15.684 15.9355,-18.7461 l 29.7832,-32.4961 49.0704,-53.7441 36.0195,-37.4961 35.1094,-38.7441 z m 518.6855,778.6523 0,38.7461 58.7422,0 0,223.7226 -79.9902,0 0,38.7442 209.9746,0 0,-28.7461 c -0.075,-11.3611 -1.4377,-9.9981 -18.7481,-9.9981 l -53.7441,0 0,-262.4687 -116.2344,0 z m -948.6328,23.748 -8.64844,1.9629 -6,16.7852 -11.59766,38.7441 -37.49609,0 0,38.7461 33.74609,0 0,118.7344 c 0.19998,16.473 4.41086,34.1843 16.35938,46.1328 13.74829,13.7483 37.2207,18.7719 56.13086,18.8594 31.99603,0.15 40.84595,-2.2111 71.24218,-6.2481 l 0,-37.4961 c -21.14737,1.7123 -57.66869,11.7117 -76.1289,-1.3867 -12.76092,-9.0489 -10.11133,-24.961 -10.11133,-38.6093 l 0,-99.9864 77.49023,0 0,-38.7461 -77.49023,0 0,-46.2441 -1.27539,-9.2481 -7.47266,-2 -18.74804,0 z m 1530.0762,53.3438 c -20.789,-0.018 -41.4179,4.5148 -56.5098,13.4609 -31.4711,18.6727 -47.0692,56.3302 -47.4941,91.9258 -0.5125,43.9446 7.1869,88.0013 49.9941,110.8359 34.1958,18.2353 88.7152,15.1983 119.9863,-8.0488 10.8362,-8.0615 18.6969,-18.3108 24.6836,-30.2969 4.4245,-8.8364 7.3501,-17.5598 7.8125,-27.496 l -38.7461,-1.25 -18.748,-1.25 c -1.6873,34.5457 -37.8578,51.7681 -62.4922,34.0078 -17.3604,-12.5235 -22.4586,-41.3314 -22.4961,-61.5039 -0.037,-22.8472 -0.1265,-50.2691 15.834,-68.5293 13.3733,-15.2981 38.7718,-17.2347 54.0449,-3.5489 8.2115,7.3616 11.7471,17.8478 13.8594,28.334 l 18.748,-1.25 17.4981,-1.25 21.248,-1.25 c -4.5619,-22.5972 -14.9234,-41.1955 -33.7461,-55.0937 -16.148,-11.9118 -39.9157,-17.7765 -63.4765,-17.7969 z m 249.9687,0 c -20.7889,-0.018 -41.4159,4.5148 -56.5078,13.4609 -31.4711,18.6727 -47.0692,56.3302 -47.4941,91.9258 -0.5125,43.9446 7.185,88.0013 49.9922,110.8359 34.1957,18.2353 88.7152,15.1983 119.9863,-8.0488 10.8361,-8.0615 18.6968,-18.3108 24.6836,-30.2969 4.4244,-8.8364 7.35,-17.5598 7.8125,-27.496 l -38.7461,-1.25 -18.7481,-1.25 c -1.6873,34.5457 -37.8577,51.7681 -62.4922,34.0078 -17.3603,-12.5235 -22.4586,-41.3314 -22.496,-61.5039 -0.037,-22.8472 -0.1246,-50.2691 15.8359,-68.5293 13.3733,-15.2981 38.7699,-17.2347 54.043,-3.5489 8.2114,7.3616 11.7471,17.8478 13.8593,28.334 l 18.7481,-1.25 17.498,-1.25 21.2481,-1.25 c -4.562,-22.5972 -14.9235,-41.1955 -33.7461,-55.0937 -16.148,-11.9118 -39.9158,-17.7765 -63.4766,-17.7969 z M 555.31836,2119.5 c -28.91304,-0.091 -58.8461,9.3558 -77.82813,27.8457 -20.9599,20.41 -29.70746,53.8824 -30.04492,82.3789 -0.42494,37.0954 9.83553,76.5403 41.24414,99.375 16.49796,11.986 41.0197,18.0719 61.24219,18.1094 43.81957,0.062 87.89025,-14.6103 103.73828,-59.9922 l -34.99609,-2.6133 c -4.46195,-0.3249 -11.83608,-1.9229 -16.12305,-0.748 -5.08687,1.4123 -6.11266,7.0736 -10.53711,11.998 -4.31196,4.7994 -10.98474,8.4241 -17.08398,10.4238 -5.11187,1.6748 -8.41316,2.1251 -13.75,2.1875 -6.61168,0.075 -12.38438,0.3123 -18.7461,-1.9375 -25.68431,-9.0488 -34.45866,-36.9952 -34.99609,-61.8046 l 138.73242,0 c 2.4747,0 7.28579,0.2869 9.24805,-1.2754 0.92488,-0.7374 1.28753,-1.5373 1.5625,-2.6621 l -1.16211,-21.0606 c -2.76216,-23.1971 -8.74757,-47.682 -23.7832,-66.2422 -8.02401,-9.8988 -16.9108,-17.6714 -28.35938,-23.4082 -14.02795,-7.0304 -31.00959,-10.5195 -48.35742,-10.5742 z m 747.14644,0.1465 c -11.4664,-0.1033 -22.7141,1.0979 -32.623,3.0898 -12.1485,2.4497 -25.2204,7.1506 -34.9941,14.9746 -17.8978,14.3108 -20.7863,26.4202 -26.2481,47.0176 l 21.2481,1.25 38.7461,1.25 c 1.0623,-7.849 2.2729,-15.0729 7.7597,-21.1973 10.2862,-11.4735 31.3463,-12.4486 42.1074,-1.25 11.7361,12.2236 10.125,30.5848 10.125,46.1954 l -49.9941,0 c -12.511,0.025 -29.6581,2.7998 -41.2441,7.5117 -13.3859,5.4618 -23.4978,13.4109 -30.6094,26.2344 -12.5485,22.6596 -10.3987,61.0282 6.1992,81.2382 21.8223,26.5842 71.7912,27.5851 98.1504,7.625 9.7738,-7.399 18.7467,-18.9224 23.7461,-30.1211 4.4119,12.0486 3.8877,23.8602 15.0488,33.2715 12.9359,10.9112 33.0328,9.7236 48.6934,7.6114 4.2744,-0.575 16.0733,-2.1998 17.998,-6.2618 0.8374,-1.7497 0.7375,-5.1627 0.75,-7.125 l 0,-20.9589 c -5.3493,-0.037 -11.0862,1.5248 -16.248,0 -13.6608,-2.9622 -14.9856,-18.6491 -14.9981,-30.2852 l 0,-67.4902 c 0,-24.447 0.212,-47.4822 -16.6484,-67.4922 -15.4497,-18.3196 -41.7387,-24.8607 -66.9649,-25.0879 z m 749.9063,0 c -11.4664,-0.1033 -22.7122,1.0979 -32.6211,3.0898 -12.1485,2.4497 -25.2223,7.1506 -34.9961,14.9746 -17.8978,14.3108 -20.7843,26.4202 -26.2461,47.0176 l 21.2461,1.25 38.7461,1.25 c 1.0624,-7.849 2.2749,-15.0729 7.7617,-21.1973 10.2862,-11.4735 31.3463,-12.4486 42.1074,-1.25 11.7361,12.2236 10.1231,30.5848 10.1231,46.1954 l -49.9942,0 c -12.5109,0.025 -29.658,2.7998 -41.2441,7.5117 -13.3858,5.4618 -23.4977,13.4109 -30.6094,26.2344 -12.5484,22.6596 -10.3988,61.0282 6.1993,81.2382 21.8222,26.5842 71.7911,27.5851 98.1503,7.625 9.7738,-7.399 18.7487,-18.9224 23.7481,-30.1211 4.4119,12.0486 3.8857,23.8602 15.0469,33.2715 12.9359,10.9112 33.0347,9.7236 48.6953,7.6114 4.2744,-0.575 16.0733,-2.1998 17.998,-6.2618 0.8374,-1.7497 0.7375,-5.1627 0.75,-7.125 l 0,-20.9589 c -5.3493,-0.037 -11.0862,1.5248 -16.248,0 -13.6608,-2.9622 -14.9856,-18.6491 -14.9981,-30.2852 l 0,-67.4902 c 0,-24.447 0.212,-47.4822 -16.6484,-67.4922 -15.4497,-18.3196 -41.7407,-24.8607 -66.9668,-25.0879 z m -443.5938,0.072 c -29.7184,0.2028 -53.4238,5.2282 -69.2421,35.0136 -2.8747,5.4243 -4.8373,8.8988 -5.9747,14.9981 -3.0496,-6.5617 -4.8873,-22.6222 -7.0371,-31.2461 -3.5245,-14.1733 -2.6872,-14.9231 -12.9609,-14.9981 l -46.2441,0 c 4.7494,23.5971 8.4365,40.6452 10.1113,64.9922 l 1.1367,12.4981 0,142.4824 56.2441,0 0,-36.2442 0,-36.246 c 0,-29.0215 0.475,-54.4308 18.9102,-78.7403 7.7365,-10.2112 17.598,-17.5606 29.834,-21.4101 22.0848,-7.3866 41.7824,-0.8499 63.7422,0 l 0,-37.3321 c 0,-2.4372 0.324,-7.1369 -1.2383,-9.0742 -1.7123,-2.1122 -6.1995,-2.3243 -8.7617,-2.6992 l -22.4961,-1.9746 c -2.0341,-0.023 -4.0422,-0.033 -6.0235,-0.019 z m -1268.82027,0.019 c -27.18413,-0.3125 -48.35527,4.2615 -65.64062,27.4961 -4.54944,6.1117 -8.49987,12.6489 -10.59961,19.998 l -3.39844,-31.2461 -1.625,-10.5 -7.47461,-2 -46.24414,0 0,5 1.25,18.7481 0,196.2246 57.49219,0 0,-121.2344 c 0.31246,-26.7592 14.93536,-58.1311 44.99414,-59.8808 30.25875,-1.7623 36.2086,28.8857 36.24609,52.3828 l 0,128.7324 57.49219,0 0,-133.7324 -1.24805,-12.4981 0,-11.25 c -1.02487,-13.3983 -5.58795,-28.4081 -12.34961,-39.9941 -9.88627,-16.9604 -29.70941,-26.0211 -48.89453,-26.2461 z m 702.41407,0 c -31.1087,0.05 -67.6166,13.2231 -78.61524,44.9941 -3.03712,8.7864 -2.72499,17.1222 -2.625,26.2461 0.58743,49.1564 57.98034,57.3924 94.98824,65.2539 9.5239,2.0248 24.5471,5.3745 32.4961,10.7988 13.5983,9.2989 13.6983,26.1098 0,35.3711 -8.7239,5.8868 -27.0224,7.4231 -37.4961,7.3106 -11.9985,-0.1375 -28.2843,-2.0104 -37.4707,-10.2344 -3.3745,-2.9996 -5.6233,-5.7872 -7.748,-9.7617 -1.3123,-2.4622 -2.575,-6.8615 -5.2871,-7.9238 -2.22474,-0.8749 -11.6492,0.9235 -14.48635,1.3359 l -33.74414,5.3379 c 3.33709,21.2724 19.50903,39.619 38.74414,48.3555 9.87375,4.4869 20.58495,6.7381 31.24605,8.4004 l 19.9981,1.9863 c 39.6326,0.4624 95.1761,-5.0499 107.2871,-51.2442 1.3873,-5.2868 1.9734,-13.2717 1.7734,-18.746 -0.3624,-9.7613 -0.7614,-15.7492 -4.6484,-24.9981 -12.5109,-29.6838 -53.6195,-38.182 -81.916,-44.4687 -15.6981,-3.4746 -49.3557,-6.4241 -51.1055,-26.7715 -1.0124,-11.7361 6.8876,-18.1617 17.3613,-21.0489 13.8858,-3.8245 38.8188,-4.4853 51.2422,3.5137 4.587,2.9496 7.6625,6.4983 10.2246,11.2852 1.6248,3.0496 2.5493,7.3739 6.2989,8.3613 2.3622,0.6249 9.2375,-0.6254 12.2246,-0.8379 l 34.9941,-3.7734 c -0.6624,-7.3616 -2.6496,-12.1989 -5.9492,-18.7481 -14.0108,-27.834 -46.8427,-39.9441 -76.5391,-39.9941 l -21.248,0 z m -486.78321,35.789 c 9.23499,0.048 18.35324,2.7561 25.58984,8.4415 13.93578,10.9361 19.83557,27.2224 19.99805,44.5078 l -92.48828,0 c 0.0125,-11.8361 1.77381,-22.1349 7.93555,-32.4961 7.8584,-13.225 23.57319,-20.5335 38.96484,-20.4532 z m 740.50191,86.6954 32.4961,0 c 0,11.9735 0.9003,20.8349 -2.9492,32.4961 -2.5997,7.8865 -6.2003,14.0479 -12.0996,19.9472 -10.7862,10.7862 -34.1957,18.9341 -47.1816,7.0606 -9.3364,-8.5365 -9.7861,-32.3947 -4.8243,-43.2559 2.3874,-5.2243 5.7487,-9.0242 10.8106,-11.7988 6.5117,-3.5871 16.4115,-4.4367 23.748,-4.4492 z m 749.9063,0 32.4961,0 c 0,11.9735 0.9003,20.8349 -2.9492,32.4961 -2.5997,7.8865 -6.1984,14.0479 -12.0977,19.9472 -10.7862,10.7862 -34.1977,18.9341 -47.1836,7.0606 -9.3363,-8.5365 -9.7861,-32.3947 -4.8242,-43.2559 2.3872,-5.2243 5.7506,-9.0242 10.8125,-11.7988 6.5117,-3.5871 16.4095,-4.4367 23.7461,-4.4492 z"
       style="fill:#000000;fill-opacity:1;stroke:none;stroke-width:1.24984515;stroke-opacity:1" />
  </g>
</svg>
