<?xml version="1.0" encoding="UTF-8" standalone="no"?>
<svg
   xmlns:dc="http://purl.org/dc/elements/1.1/"
   xmlns:cc="http://creativecommons.org/ns#"
   xmlns:rdf="http://www.w3.org/1999/02/22-rdf-syntax-ns#"
   xmlns:svg="http://www.w3.org/2000/svg"
   xmlns="http://www.w3.org/2000/svg"
   version="1.1"
   id="svg3355"
   viewBox="0 0 2268 2268"
   height="31.4961in"
   width="31.4961in">
  <metadata
     id="metadata3362">
    <rdf:RDF>
      <cc:Work
         rdf:about="">
        <dc:format>image/svg+xml</dc:format>
        <dc:type
           rdf:resource="http://purl.org/dc/dcmitype/StillImage" />
        <dc:title></dc:title>
      </cc:Work>
    </rdf:RDF>
  </metadata>
  <defs
     id="defs3360" />
  <g
     id="g4278">
    <path
       style="fill:#000000;fill-opacity:1;stroke:none;stroke-width:1.24984515;stroke-opacity:1"
       d="M 2411.9492 306.73047 C 2410.8139 306.73025 2409.6487 306.85902 2408.4512 307.13672 C 2400.5646 311.23621 2387.8292 325.58484 2380.9551 332.45898 L 2337.2109 373.6543 L 2274.7676 434.94531 L 2214.6758 499.9375 L 2160.9824 552.31836 L 2110.9883 598.72656 L 2067.1934 643.66992 L 2036.8984 676.16602 C 2033.8738 679.59059 2028.0857 684.92703 2026.2109 688.66406 C 2024.8486 691.38872 2024.3864 695.38982 2025.3613 698.31445 C 2027.0361 703.38882 2044.9717 720.13575 2049.7461 724.91016 L 2128.4863 808.65039 C 2136.2854 816.44942 2148.6839 833.64708 2160.9824 828.97266 C 2165.0819 827.42285 2169.1434 822.97306 2172.2305 819.89844 C 2175.5551 816.58635 2180.9053 811.74985 2182.7051 807.40039 C 2183.6925 804.42576 2183.6925 799.21251 2182.7051 796.15039 L 2168.4805 767.4043 C 2165.9183 762.89236 2158.3574 749.58262 2158.4824 744.9082 C 2158.5574 742.09605 2159.9572 739.62043 2161.582 737.4082 L 2200.7656 697.41406 L 2250.8594 643.66992 L 2293.4668 600.03906 L 2333.4609 562.54297 C 2339.0602 557.33111 2352.7844 545.77037 2356.459 539.93359 C 2361.5958 531.7846 2355.1583 525.45986 2349.709 519.93555 L 2328.4609 498.6875 C 2325.3738 495.58788 2319.5999 490.43893 2318.5625 486.18945 C 2317.5126 481.95248 2320.3253 478.07852 2322.8125 474.94141 L 2341.3105 454.94336 L 2354.5957 441.19531 L 2398.4531 396.25 L 2415.9512 379.95312 L 2435.9473 361.31836 C 2439.5968 357.90628 2444.6972 354.36898 2446.9844 349.95703 C 2448.6467 346.73243 2449.5834 340.85856 2448.1211 337.45898 C 2446.6213 333.99691 2441.2219 328.98364 2438.4473 326.20898 C 2431.0962 318.84662 2422.9241 306.73263 2411.9492 306.73047 z M 743.6582 349.95703 C 750.34487 366.46749 769.54175 371.97961 784.90234 377.69141 L 827.39844 390.47656 L 907.38672 414.11133 C 1035.7333 456.74355 1143.7711 512.0861 1238.5469 611.17383 C 1267.2308 641.15761 1300.4022 684.47751 1314.7754 723.66016 C 1319.4748 736.49607 1328.9601 768.49312 1306.0879 769.73047 C 1298.9388 770.11792 1285.191 764.5418 1278.5918 761.42969 L 1221.0996 727.66016 C 1180.9421 703.28818 1143.0954 682.41567 1099.8633 663.85547 C 1087.2898 658.45614 1052.0071 644.29469 1039.8711 642.41992 C 1048.5575 640.68264 1071.5289 648.26983 1081.1152 650.70703 L 1144.8574 667.87891 C 1155.7061 670.59107 1172.6924 674.77853 1183.6035 674.91602 C 1189.1278 674.97851 1198.6772 675.42827 1203.6016 673.47852 C 1224.7614 665.15455 1209.9503 635.44721 1202.5137 622.42383 C 1180.5289 583.97859 1141.6839 554.33087 1106.1133 529.20898 C 1082.9162 512.83601 1048.5448 495.4388 1022.373 483.86523 C 972.16682 461.66798 923.8109 447.89372 869.89258 438.16992 C 844.13327 433.5205 818.49911 430.40876 792.40234 428.58398 L 779.9043 427.39648 L 761.15625 427.39648 L 747.4082 426.19727 L 726.16016 426.19727 L 711.16211 427.39648 L 694.91406 427.39648 L 682.41602 428.58398 L 653.66992 430.98438 C 596.68948 436.68367 549.07009 446.39549 493.68945 460.40625 L 393.70117 488.22656 C 376.91575 492.53853 359.79238 497.28767 342.45703 498.6875 C 351.98085 502.46203 373.56688 497.71261 383.70312 495.46289 L 479.94141 470.4668 C 524.67336 458.04334 575.12953 448.09496 621.17383 442.0957 L 669.91797 437.33398 L 682.41602 436.19531 L 706.16211 434.94531 L 752.40625 434.94531 L 772.4043 436.19531 L 813.64844 439.74609 C 899.37532 448.90746 991.42628 475.9791 1064.8672 521.71094 C 1092.4013 538.85881 1126.4354 564.07914 1144.4082 591.17578 C 1150.9949 601.09955 1161.4693 618.74911 1147.3086 627.31055 C 1144.7589 628.84786 1141.4965 629.58523 1138.6094 630.16016 C 1135.0598 630.87257 1132.2589 631.25857 1128.6094 631.05859 C 1104.9373 629.72126 1074.7662 622.71074 1051.1191 617.98633 C 1021.3478 612.03707 991.31462 607.73752 961.13086 604.71289 C 947.80751 603.38805 923.97263 601.16344 911.13672 602.42578 C 916.69853 598.30129 934.92124 597.73941 942.38281 597.37695 L 998.62695 590.35156 C 1008.8882 588.12684 1023.0983 583.96591 1027.9102 573.67969 C 1031.9971 564.93077 1026.0232 554.40578 1020.9238 547.43164 C 1008.5129 530.42125 986.8911 516.54757 968.63086 506.36133 C 924.48633 481.72688 873.50476 467.95539 823.64844 461.03125 L 786.15234 457.33008 L 771.1543 456.19336 L 716.16211 456.19336 L 701.16406 457.33008 C 659.90667 460.15473 620.07276 466.81726 579.92773 476.85352 C 431.37114 513.98641 301.01327 601.3754 193.72656 708.66211 L 151.28125 751.15625 L 136.23242 767.4043 C 127.77097 775.87825 105.87505 796.68891 99.988281 804.90039 C 108.99966 799.63854 119.87281 788.5901 127.48438 781.16602 L 154.98047 754.90625 C 184.36433 725.52239 213.73512 696.46418 244.96875 669.01758 C 338.25719 587.06523 441.43202 525.84734 561.17969 491.72656 C 660.20492 463.49256 769.14241 457.50551 868.64258 486.18945 C 892.28965 493.00111 920.28524 504.91239 939.88281 519.81055 C 946.49449 524.83492 958.61872 535.88276 958.34375 544.93164 C 957.86881 559.71731 930.0853 565.61747 918.63672 567.92969 L 827.39844 585.18945 L 777.4043 597.42578 C 793.70228 588.15193 811.32527 580.79035 826.14844 569.0918 C 833.92247 562.96756 840.6702 555.50533 839.75781 544.93164 C 838.58296 531.20834 821.34897 520.48531 809.90039 515.46094 C 781.70388 503.09997 751.75637 496.96341 721.16016 494.82617 L 708.66211 493.68945 C 660.44308 493.12702 627.23437 495.50097 579.92773 506.47461 C 438.35777 539.34554 311.44959 631.38477 222.99805 744.9082 C 164.96774 819.38648 122.04803 903.67544 90.376953 992.37695 L 60.716797 1084.8652 L 47.494141 1132.3594 C 51.318667 1126.4476 53.243238 1117.8999 55.417969 1111.1133 L 67.904297 1072.3672 C 81.790076 1030.5849 95.976328 989.25278 113.01172 948.63281 C 164.21787 826.59793 242.55753 714.68714 347.45703 632.94727 C 410.73669 583.64087 485.61436 543.98274 563.67969 524.47266 C 587.58923 518.4984 624.34794 511.225 648.66992 511.1875 C 680.52847 511.13751 706.48703 510.36223 737.4082 520.77344 C 747.06951 524.02303 763.66743 531.14749 765.61719 542.43359 C 767.45446 553.06978 752.40727 565.00577 744.9082 570.58008 L 693.66406 603.73828 L 661.16797 624.92188 C 667.3547 614.81062 677.67894 600.95121 677.94141 588.67773 C 678.49134 562.03104 641.35883 555.85574 621.17383 554.88086 L 607.42383 553.68164 L 602.42578 553.68164 L 589.92773 554.98047 L 579.92773 554.98047 C 511.86117 561.62964 442.89611 589.86402 386.20312 627.42188 C 250.56993 717.29824 165.14222 863.08002 130.70898 1019.873 C 122.80996 1055.8186 117.43523 1091.9264 114.87305 1128.6094 L 113.73633 1141.1094 L 112.48633 1166.1055 L 112.48633 1229.8477 L 113.73633 1254.8438 L 114.87305 1268.5938 L 122.82227 1348.582 L 128.73438 1392.3281 C 131.08408 1386.3414 128.34719 1376.3918 127.69727 1369.8301 L 122.69727 1322.3359 L 119.87305 1284.8398 L 118.73438 1266.0938 L 117.48633 1244.8457 L 117.48633 1176.1035 L 118.64844 1158.4941 C 120.01077 1128.3479 123.24751 1098.3885 128.42188 1068.6172 C 145.41977 970.7543 175.60317 887.45251 229.58398 803.65039 C 284.11473 719.01088 369.51753 640.59611 463.69336 602.92578 C 488.57778 592.97701 523.22245 582.41625 549.93164 581.12891 C 559.01801 580.69146 560.5935 579.0408 571.17969 580.45312 C 586.4028 582.49038 609.41247 586.6522 606.02539 607.53711 C 605.35047 611.6616 603.7494 616.1118 602.03711 619.92383 C 597.97511 628.93521 592.75208 636.63345 587.49023 644.91992 L 567.42969 674.91602 C 565.85488 666.1796 565.55402 658.76898 560.17969 651.16992 C 551.41827 638.77146 535.57126 634.98437 521.18555 634.92188 C 495.65121 634.79688 486.97782 636.50946 462.44336 643.49609 C 443.45821 648.89542 423.53457 657.65546 406.19922 667.0293 C 341.7697 701.86248 289.13898 749.57037 247.49414 809.90039 C 229.78383 835.57221 215.06128 862.81718 202.08789 891.13867 C 118.17329 1074.3785 146.63161 1283.903 228.33398 1462.3184 C 241.9198 1491.9772 255.79386 1521.7246 272.4668 1549.8086 C 272.4543 1544.5842 268.2665 1538.2725 265.9043 1533.5605 L 249.79492 1501.0645 L 224.24805 1443.5703 L 200.8125 1379.8281 C 185.93934 1335.2087 175.41668 1293.8524 168.20508 1247.3457 L 161.23047 1184.8535 L 159.98047 1161.1055 L 159.98047 1123.6113 L 161.23047 1108.6133 L 161.23047 1097.3633 L 164.79297 1066.1172 C 168.66749 1033.6962 175.69071 997.16451 185.81445 966.13086 C 194.57587 939.27169 204.21286 912.84998 216.54883 887.39062 C 249.38226 819.58653 303.23788 752.89444 366.20508 711.16211 C 391.61443 694.33919 434.00969 671.8921 464.94336 671.17969 C 478.05423 670.89222 490.12708 674.36552 497.45117 686.16406 C 505.06273 698.42504 503.6875 720.74746 503.6875 734.9082 C 487.26453 726.49675 481.42877 720.96045 461.40625 720.18555 C 430.3101 718.9732 393.20189 737.05785 367.45508 753.13086 C 294.27664 798.7877 231.88385 886.72851 205.59961 968.63086 C 185.77707 1030.4482 180.47861 1076.5549 181.22852 1141.1094 L 182.36523 1153.6074 L 188.62695 1208.5996 C 204.66247 1305.4501 245.93141 1392.8534 300.78711 1473.5684 C 321.22208 1503.6396 343.48262 1532.1851 367.11719 1559.8066 C 376.716 1571.0178 396.37559 1594.3768 407.44922 1602.3008 L 373.80273 1562.3066 C 353.66773 1538.1846 334.32203 1513.3007 316.63672 1487.3164 C 261.63103 1406.4639 216.8222 1314.5001 200.51172 1217.3496 L 193.72656 1164.8555 L 193.72656 1154.8574 L 192.47656 1139.8594 L 192.47656 1112.3613 L 194.76367 1081.1152 C 201.86279 1007.8368 224.3091 938.44557 266.19141 877.39062 C 281.01457 855.7808 297.72588 833.89589 317.46094 816.49805 C 339.09576 797.43791 362.15462 778.65355 389.95117 769.49219 C 403.81195 764.91775 418.39901 762.59286 432.44727 767.99219 C 447.60789 773.81647 454.18219 782.6787 464.94336 793.65234 C 444.07095 793.65234 434.43415 793.24019 413.69922 799.18945 C 383.00302 807.97586 355.95607 827.44791 332.45898 848.44531 C 280.6404 894.71458 243.89392 964.36887 226.37109 1031.123 C 220.15936 1054.7701 213.76015 1089.3268 213.72266 1113.6113 L 213.72266 1154.8574 C 213.76015 1175.1549 220.53422 1213.4627 225.55859 1233.5977 C 248.61824 1325.7987 302.39985 1405.6018 367.4043 1473.5684 L 379.95312 1487.3164 L 396.25 1502.4258 C 420.89695 1526.1353 446.56977 1548.7838 473.69141 1569.6562 C 483.17773 1576.9679 499.90124 1590.7534 509.9375 1596.0527 C 503.4508 1588.6412 495.03851 1583.1672 487.43945 1576.9805 L 446.19531 1541.959 C 412.94943 1512.7001 367.64156 1465.9054 340.48242 1431.0723 C 308.47389 1390.0024 279.97799 1345.5714 259.98047 1297.3398 C 217.91068 1195.8274 213.19763 1086.6913 257.11719 984.87891 C 281.43917 928.48589 329.77144 859.25509 392.45117 843.58203 C 418.64793 836.93286 425.54638 841.66977 449.94336 843.58203 C 443.26919 847.49405 434.82135 849.19485 427.44727 851.76953 C 417.94844 855.09412 408.87507 859.34432 399.95117 863.96875 C 371.01726 878.9294 341.94561 906.65045 322.31055 932.38477 C 238.80839 1041.8962 226.84671 1202.4506 298.02539 1321.0859 C 337.08305 1386.1904 393.98841 1433.0347 454.94336 1476.5918 L 528.68359 1525.998 C 538.3199 1532.0473 558.70592 1545.409 568.67969 1548.5586 L 541.18359 1530.2227 L 491.18945 1495.5391 C 429.72207 1451.1571 360.75466 1392.528 319.57227 1328.5859 C 268.92854 1249.9582 252.40672 1159.5059 275.12891 1068.6172 C 282.12804 1040.6082 291.5506 1015.0488 305.86133 989.87695 C 332.30805 943.35772 367.24114 908.65062 418.69727 891.55273 C 428.1086 888.42812 442.68207 884.44054 452.44336 883.64062 L 437.44531 891.66406 L 409.94922 909.17578 C 387.45201 925.24879 368.65419 945.18361 352.03125 967.38086 C 278.67784 1067.3935 269.36649 1230.7481 352.03125 1328.5859 C 391.83882 1376.1925 446.41913 1401.2645 499.9375 1430.2109 L 562.42969 1464.543 C 569.86627 1468.4925 582.51615 1476.4042 589.92773 1478.5664 C 584.04096 1473.0921 576.69135 1469.4807 569.92969 1465.2188 L 526.18555 1438.0469 C 473.44208 1405.2009 408.59885 1367.5927 367.81641 1321.0859 C 281.72707 1222.9106 290.40236 1061.1692 378.81641 967.38086 C 404.20076 940.4467 437.18312 922.24753 471.19141 908.63672 L 442.44531 929.19727 C 422.57277 945.0703 407.1001 960.45647 392.12695 981.12891 C 363.93045 1020.0866 344.88218 1066.9173 339.75781 1114.8613 L 337.45898 1139.8594 L 337.45898 1163.6055 L 339.79492 1187.3535 C 345.73169 1230.1607 360.66761 1274.0304 392.45117 1304.7891 C 427.55932 1338.7474 468.90344 1343.9077 512.43555 1359.0059 C 535.19523 1366.9049 553.58233 1375.3787 574.92969 1386.4023 L 602.42578 1401.0762 C 595.77661 1393.9021 574.25353 1381.6794 564.92969 1376.0801 C 544.29474 1363.7066 523.25977 1352.4582 501.1875 1342.8594 C 470.07885 1329.3361 432.10866 1314.6256 407.44922 1291.041 C 378.36532 1263.232 362.33004 1230.5717 355.69336 1191.1016 C 354.44351 1183.69 352.54452 1172.1546 352.45703 1164.8555 C 352.14457 1137.4089 352.5438 1116.8744 359.29297 1089.8652 C 375.27849 1025.9732 413.93585 973.59179 469.94141 938.87109 C 478.8778 933.33428 487.7637 927.80925 497.4375 923.63477 C 469.66594 947.13185 458.45644 952.57025 434.79688 983.62891 C 392.30213 1039.447 372.71537 1114.4246 386.45117 1183.6035 C 392.82538 1215.7245 406.49868 1248.7583 433.69531 1268.6934 C 454.70521 1284.0915 479.80311 1286.0523 504.9375 1286.0898 L 542.43359 1288.9395 C 560.58135 1291.5141 577.47779 1298.0526 593.67578 1306.4141 L 609.92383 1314.8379 C 604.09955 1307.9637 593.95177 1302.2893 586.17773 1297.5898 C 565.85525 1285.3289 545.53269 1278.1673 522.43555 1273.168 C 489.11468 1265.9564 463.65558 1265.5314 436.20898 1241.7969 C 412.16196 1221.012 397.82613 1177.391 397.45117 1146.1074 L 397.45117 1129.8594 C 397.46367 1120.0481 399.0502 1109.5496 400.6875 1099.8633 C 410.59877 1040.9081 446.33282 988.72802 493.68945 953.16992 C 504.68809 944.89595 522.48514 932.7716 534.93359 927.38477 C 521.79772 937.88346 507.93683 947.70737 496.23828 959.88086 C 462.85492 994.61406 438.91973 1038.3961 431.0957 1086.1152 L 428.69727 1107.3633 L 428.69727 1127.3594 C 428.74726 1159.1804 442.13251 1203.4251 471.19141 1219.998 C 499.80036 1236.321 540.15853 1220.0994 571.17969 1218.7246 L 582.42773 1219.7363 C 608.87446 1221.6736 612.78711 1227.4739 634.92188 1237.3477 C 630.27244 1231.4484 623.82304 1227.6734 617.42383 1223.8613 C 597.97624 1212.2753 573.62886 1207.3871 551.18164 1207.3496 C 527.15962 1207.3121 498.00136 1209.8384 477.44141 1195.1152 C 457.06893 1180.5295 445.23278 1149.4083 444.94531 1124.8613 L 444.94531 1104.8633 C 444.97031 1092.7023 447.71994 1080.2782 451.01953 1068.6172 C 464.86782 1019.7482 496.30119 979.21668 537.43359 949.88281 C 548.74469 941.80881 562.18127 932.90908 574.92969 927.38477 C 558.03178 941.68299 549.39478 945.95805 532.48438 963.63086 C 503.85041 993.56465 477.94134 1042.5955 477.44141 1084.8652 L 477.44141 1097.3633 C 477.4789 1122.8101 487.92624 1157.8325 513.68555 1168.0312 C 523.15937 1171.7809 531.25982 1171.218 541.18359 1171.1055 L 609.92383 1161.1055 L 618.67383 1161.1055 C 629.29751 1161.118 641.29615 1163.1802 651.16992 1167.1797 L 676.16602 1178.6035 C 657.36834 1159.9558 624.63506 1151.1449 598.67578 1151.1074 L 553.68164 1152.3574 C 546.44504 1152.3449 540.70772 1151.7455 533.68359 1149.8457 C 506.39947 1142.4466 494.97695 1116.187 494.93945 1089.8652 L 494.93945 1079.8652 C 495.02694 1062.3674 501.04973 1044.3336 508.29883 1028.623 C 531.73342 977.82939 577.01561 942.84653 627.42188 921.13672 L 597.42578 941.69531 C 571.01655 962.70521 546.59442 992.27714 536.2207 1024.873 C 527.08434 1053.582 524.83552 1100.4384 556.18164 1116.8613 C 567.8427 1122.9731 579.77735 1122.4238 592.42578 1122.3613 L 639.91992 1118.6621 C 650.25614 1118.3371 671.22975 1121.961 681.16602 1125.3105 C 703.47575 1132.8096 711.81147 1143.833 722.41016 1148.6074 C 698.52562 1122.4107 670.6551 1112.1113 636.17188 1108.8242 C 614.1121 1106.7245 586.21486 1109.8878 567.42969 1096.377 C 543.79512 1079.3791 546.35783 1045.0451 555.93164 1021.123 C 576.79156 968.96706 628.59737 935.7471 679.91602 918.63672 L 663.66797 927.75977 C 650.56959 934.95887 636.94554 944.60792 626.17188 954.93164 C 616.07312 964.60544 606.71281 976.46596 599.76367 988.62695 C 583.99063 1016.2735 578.85299 1061.0814 612.42383 1078.2793 C 630.82155 1087.7031 661.30613 1087.5024 682.41602 1091.4395 C 716.23683 1097.7387 736.09624 1110.3879 756.15625 1138.6094 C 755.7188 1128.8856 737.29674 1110.2492 729.91016 1104.1875 C 700.63878 1080.203 673.49107 1082.3408 642.41992 1071.0547 C 622.74736 1063.9056 608.83695 1052.0578 607.53711 1029.873 C 606.96218 1020.0243 610.77358 1007.4259 615.06055 998.62695 C 619.53499 989.41559 627.78448 978.428 634.93359 971.12891 C 646.26969 959.56784 659.55526 950.08301 673.66602 942.20898 C 687.75177 934.34746 717.81017 922.47405 733.6582 921.13672 C 715.34797 929.64816 702.87449 933.69731 686.16406 946.6582 C 676.12781 954.45724 669.56704 960.74269 662.10547 971.12891 C 643.19531 997.41315 641.23402 1032.0228 669.91797 1052.3203 C 683.45379 1061.8941 699.6515 1066.5804 714.91211 1072.6172 C 739.24659 1082.266 761.19377 1094.5643 773.92969 1118.6113 C 777.8917 1126.0979 779.47755 1130.3104 781.15234 1138.6094 C 784.80189 1127.6232 771.57925 1104.6622 764.89258 1096.1133 C 743.08278 1068.2917 705.27521 1059.8439 684.92773 1041.9961 C 665.79261 1025.1982 664.15452 1001.5514 678.55273 981.12891 C 685.23941 971.65508 689.56519 967.27919 698.66406 960.14258 C 708.92529 952.09358 722.67222 944.84514 734.9082 940.2832 C 756.00559 932.42168 769.14257 930.2969 791.15234 927.38477 C 778.35393 933.90896 766.01778 933.20935 742.4082 948.73242 C 719.66102 963.68057 703.00074 989.61404 712.09961 1017.373 C 714.34933 1024.2347 718.9736 1031.7218 723.43555 1037.3711 C 743.92051 1063.3554 791.06415 1078.4666 801.21289 1121.1113 C 803.61259 1130.8726 801.9253 1137.8461 801.21289 1147.3574 C 808.57448 1135.9588 804.53759 1110.3743 798.92578 1098.6133 C 795.5262 1091.5142 789.91381 1083.229 784.68945 1077.3672 C 763.45458 1053.5826 716.31034 1025.3597 733.5332 987.37695 C 735.82042 982.32758 738.67195 978.85341 742.45898 974.87891 C 748.67071 968.36721 753.31972 964.20569 761.15625 959.71875 C 771.92992 953.55701 782.81634 949.55709 794.90234 946.85742 C 816.14971 942.09551 823.70966 942.38281 844.89453 942.38281 C 828.2341 947.88213 819.29814 946.60826 801.15039 956.51953 C 794.00128 960.41905 787.60283 965.33004 782.10352 971.3418 C 777.79155 976.05371 774.27824 981.3777 772.04102 987.37695 C 753.6183 1036.7708 815.69883 1076.5408 825.16016 1112.3613 C 826.58498 1117.7607 825.07254 1123.2225 824.16016 1128.6094 C 821.79795 1142.7201 822.36017 1146.4946 816.14844 1159.8555 C 816.17343 1159.868 817.32351 1159.6572 817.89844 1160.8945 C 818.72334 1162.6443 816.28588 1175.8789 815.83594 1178.6035 C 812.83631 1197.1512 810.93792 1216.0625 811.15039 1234.8477 L 812.47461 1246.0957 L 812.47461 1256.0938 C 816.69909 1289.0022 825.82204 1323.711 833.49609 1356.082 L 842.39648 1394.8281 C 816.27472 1398.2777 825.33489 1396.7904 801.15039 1394.8281 C 812.04904 1402.2147 832.35858 1399.5885 844.89453 1398.5762 C 846.15687 1406.7627 851.63166 1420.5983 854.90625 1428.5723 C 856.19359 1431.6844 859.44438 1437.5715 858.20703 1440.8086 C 856.28227 1445.833 837.78332 1451.8694 832.39648 1453.7441 C 817.58582 1458.881 801.75041 1461.3196 786.15234 1462.207 C 781.34044 1462.482 779.31625 1461.7063 774.9043 1461.2812 L 758.65625 1459.4941 L 742.4082 1456.0703 C 750.76967 1462.0571 769.58058 1464.5426 779.9043 1464.8301 L 789.90234 1465.6426 C 800.56352 1465.6426 817.04972 1463.7942 827.39844 1461.207 L 846.14453 1455.5449 L 864.89258 1448.5703 C 866.72985 1454.857 870.31722 1460.4941 873.7168 1466.0684 C 875.2916 1468.643 878.4921 1472.8055 877.80469 1475.9551 C 877.04228 1479.5046 870.35471 1483.2663 867.39258 1485.2285 C 854.95662 1493.5275 850.80732 1496.0266 837.39648 1502.6133 C 813.18698 1514.5243 780.7029 1523.2356 753.65625 1523.5605 C 736.02093 1523.7605 718.21195 1521.7369 701.16406 1517.125 L 679.91602 1511.0625 C 687.82754 1517.1742 710.83644 1522.7108 721.16016 1524.498 C 761.04271 1531.4222 802.6636 1526.4484 839.89648 1510.5254 L 867.39258 1496.5645 L 882.37891 1487.4531 C 883.70374 1487.0657 884.57868 1486.9282 885.91602 1487.4531 C 889.46558 1488.8405 899.6393 1503.5641 898.43945 1507.2637 C 897.57706 1509.9508 892.12786 1514.1377 889.89062 1516.125 L 864.89258 1536.209 C 828.94703 1562.6682 785.94015 1581.3297 741.1582 1584.9043 L 728.66016 1586.0527 C 713.14958 1586.2277 697.71412 1585.5532 682.41602 1582.791 L 661.16797 1578.3672 L 642.41992 1573.5547 C 651.61878 1579.5289 674.84047 1584.2905 686.16406 1586.5527 C 736.59531 1596.639 791.2397 1588.0902 837.39648 1565.7305 C 856.49412 1556.4816 874.24077 1544.5961 891.13867 1531.8477 C 894.72573 1529.1355 905.52434 1518.6998 909.67383 1520.0371 C 911.86106 1520.7495 914.29939 1524.2733 915.69922 1526.0605 C 917.52399 1528.3853 921.72423 1533.1359 921.82422 1536.0605 C 921.9492 1539.9101 914.78638 1546.4968 912.07422 1549.2715 C 891.2643 1570.5438 869.30401 1591.765 844.89453 1608.9004 C 807.04922 1635.4596 766.14193 1650.8824 719.91016 1653.6445 L 702.41211 1654.7578 L 691.16406 1653.6582 L 667.41797 1651.9336 L 634.92188 1646.0469 C 640.93363 1649.6214 650.49383 1651.1576 657.41797 1652.5449 C 671.19126 1655.2946 692.32632 1658.5199 706.16211 1658.5449 L 723.66016 1658.5449 L 738.6582 1657.4062 C 780.26555 1654.3691 822.69883 1639.5846 857.39453 1616.375 C 877.94199 1602.6267 897.2639 1587.1787 914.88672 1569.8184 L 928.24805 1556.6953 C 930.02283 1555.0455 932.4097 1552.3083 935.10938 1552.9707 C 939.80879 1554.1206 951.75801 1568.6053 950.2207 1573.5547 C 949.33331 1576.4043 933.54727 1594.7407 930.41016 1598.5527 L 885.22852 1654.7949 C 842.69629 1704.4013 783.41463 1729.3352 718.66016 1729.7852 L 682.41602 1729.7852 C 693.21468 1734.1096 717.73666 1732.4351 729.91016 1732.2852 C 784.65337 1731.6477 836.10855 1716.6618 879.89062 1682.916 C 896.2761 1670.2801 918.66143 1646.0218 932.07227 1629.7988 C 939.14639 1621.2499 960.58139 1595.4517 964.88086 1587.3027 L 991.12695 1609.8008 L 970.74219 1652.2949 C 961.08088 1679.4416 956.23189 1708.2756 939.33398 1732.2852 C 914.33708 1767.8058 868.98079 1789.6914 827.39844 1799.0527 C 818.0246 1801.165 808.2242 1803.9899 798.65039 1804.7773 C 803.87474 1806.6896 811.87412 1804.5393 817.39844 1803.627 C 832.2091 1801.1773 846.80685 1797.5772 861.14258 1793.1777 C 903.49983 1780.1543 945.62029 1757.5324 970.67969 1719.7871 C 983.85306 1699.9521 992.27721 1674.4547 1000.8887 1652.2949 L 1011.125 1628.5488 C 1020.9363 1636.9728 1031.6224 1644.2954 1042.3711 1651.457 C 1046.7206 1654.3567 1056.2195 1659.8934 1058.9941 1663.668 L 1069.2168 1687.291 C 1077.8407 1703.764 1086.3277 1716.7625 1086.1152 1736.0352 C 1085.9153 1753.6705 1074.304 1771.2808 1062.3555 1783.5293 C 1041.4581 1804.9516 1022.4612 1818.3377 996.12695 1832.2734 C 1000.7764 1832.5859 1007.013 1828.9868 1011.125 1826.7246 L 1037.3711 1811.2637 C 1076.8537 1786.7417 1127.5859 1740.3971 1108.6133 1688.541 L 1146.1074 1703.4766 C 1175.6413 1714.2627 1233.9975 1729.5102 1264.8438 1729.7852 L 1249.8457 1754.7832 C 1254.7326 1750.1463 1267.4805 1733.26 1271.2051 1732.0352 C 1276.117 1729.8354 1287.7406 1732.2101 1293.5898 1732.0352 C 1316.5495 1732.5476 1339.5349 1732.1727 1362.332 1729.4355 C 1417.2002 1722.8239 1471.0685 1707.0135 1519.8125 1680.6543 C 1563.6821 1656.9322 1606.5516 1627.0863 1644.7969 1595.1152 L 1679.791 1563.5566 C 1683.603 1559.7446 1692.4272 1549.8331 1697.2891 1548.6582 C 1704.5132 1546.8959 1715.0127 1560.0322 1719.7871 1564.8066 L 1765.1309 1613.5508 C 1772.5799 1621.9997 1779.2413 1629.7114 1791.0273 1623.6621 L 1813.5254 1609.5625 C 1817.6749 1606.9878 1823.3374 1603.9514 1825.8496 1599.6895 C 1831.7739 1589.6532 1825.023 1584.2913 1818.7363 1577.3047 L 1810.9766 1568.5547 L 1764.7812 1522.3105 C 1761.1692 1518.6985 1747.2077 1506.0007 1746.0078 1502.2012 C 1744.5205 1497.4893 1747.8207 1493.289 1750.5703 1489.8145 L 1772.3301 1466.2305 C 1775.5047 1463.3433 1779.0549 1460.9806 1783.5293 1462.293 C 1788.4787 1463.7553 1795.8278 1472.243 1799.7773 1476.0176 L 1834.7734 1508.5625 L 1864.7695 1537.3086 C 1868.5441 1541.0831 1879.868 1552.8831 1883.5176 1555.1328 C 1894.1288 1561.6945 1909.7253 1548.1704 1918.5117 1542.3086 L 1927.2109 1536.3594 C 1931.4604 1532.9723 1934.0608 1529.2473 1933.2109 1523.5605 C 1932.0236 1515.674 1914.8004 1502.1145 1908.5137 1496.1152 L 1847.2715 1438.5723 C 1842.5221 1433.8229 1828.5106 1421.6484 1828.9355 1414.8242 C 1829.398 1407.4376 1844.3597 1396.0017 1849.7715 1390.9648 C 1854.4334 1386.6279 1862.3058 1377.3663 1868.5176 1376.1289 C 1873.8044 1375.0665 1877.2676 1378.7915 1880.4922 1382.3535 L 1899.9766 1403.5762 L 1912.1504 1416.0742 L 1963.5059 1467.5312 C 1970.18 1473.5681 1980.9675 1487.0408 1989.7539 1488.2656 C 1996.0781 1489.153 2001.0776 1485.2277 2006.002 1481.8906 L 2017.25 1473.9922 C 2025.8614 1468.1304 2037.5233 1460.6188 2030.0742 1448.5703 L 1999.752 1417.3242 L 1947.1465 1361.082 L 1921.6484 1334.834 C 1914.7243 1324.7727 1925.7356 1316.3871 1932.2598 1309.8379 L 1942.6094 1298.5898 C 1946.0964 1294.6653 1951.3585 1288.5021 1957.2578 1289.9395 C 1960.7824 1290.7893 1964.5312 1294.6405 1967.2559 1296.9902 L 1989.7539 1318.2363 C 2015.2008 1340.671 2037.5482 1366.5812 2060.9453 1391.0781 L 2086.2031 1417.6484 C 2096.9518 1424.9975 2116.7375 1408.0755 2125.9863 1402.2637 C 2129.4984 1400.0514 2135.0112 1397.0902 2137.0234 1393.4531 C 2143.6601 1381.4046 2124.7124 1366.0561 2117.2383 1358.582 L 2067.2441 1308.6387 L 2029.748 1273.6426 L 2007.2754 1252.3457 C 2002.0135 1246.8714 1997.8268 1242.2092 2002.8887 1234.8477 C 2006.4257 1229.7108 2021.9112 1215.3619 2027.248 1210.75 C 2030.6851 1207.7754 2034.8986 1203.2012 2039.748 1203.2012 C 2044.2725 1203.2012 2047.959 1206.9504 2050.9961 1209.875 L 2072.2441 1232.3477 L 2147.2344 1303.5391 L 2162.2324 1317.3359 L 2183.4785 1338.584 C 2187.2156 1342.321 2192.0417 1347.9076 2197.2285 1349.2949 C 2205.3025 1351.4572 2212.1754 1346.1089 2218.4746 1341.9219 L 2258.4707 1315.1875 L 2358.457 1245.9453 C 2374.73 1234.6717 2393.8906 1225.1352 2406.4766 1209.8496 L 2427.2988 1184.8535 C 2430.8234 1180.6165 2435.9603 1175.3923 2436.9102 1169.8555 C 2438.4725 1160.8316 2432.9235 1156.9067 2427.1992 1151.1074 L 2407.2012 1129.8594 L 2393.4531 1117.3125 L 2375.9551 1099.9766 L 2300.9648 1028.623 L 2274.7676 1002.375 C 2269.2558 996.7007 2264.7946 991.20315 2255.9707 994.55273 C 2251.3963 996.29002 2245.7847 1002.5879 2242.2227 1006.125 L 2224.7246 1022.373 L 2155.9961 1094.8652 L 2135.9863 1116.1113 C 2133.1117 1118.961 2128.7233 1123.7974 2124.7363 1124.7598 C 2120.0869 1125.8971 2116.7254 1122.6731 2113.4883 1119.8984 L 2094.7402 1102.3633 L 2063.4941 1073.5039 L 2018.5 1029.873 L 1999.7773 1011.125 C 1996.7652 1007.9879 1993.0904 1004.6639 1994.1152 999.87695 C 1995.0401 995.5025 2000.3773 990.46525 2003.502 987.39062 L 2030.998 962.16797 L 2047.2461 946.18359 L 2075.9434 918.63672 L 2092.2402 901.13867 L 2109.752 882.39062 C 2113.6015 878.44111 2122.2487 869.567 2124.5234 864.89258 C 2127.9105 857.93094 2124.2744 852.4814 2119.625 847.39453 L 2092.2402 819.89844 L 2013.5508 737.4082 L 1994.752 717.41016 L 1972.2559 696.16406 C 1967.4939 691.43965 1963.2819 686.18907 1956.0078 686.28906 C 1948.7962 686.37655 1942.6466 693.0896 1937.2598 697.41406 L 1907.4883 721.37305 C 1904.8511 724.06021 1902.1642 728.03554 1899.9395 731.16016 L 1834.3594 822.39844 L 1803.7148 872.39258 L 1783.5293 906.13867 C 1780.9171 910.47563 1775.73 917.64785 1775.0801 922.38477 C 1774.1302 929.18392 1778.0169 932.76034 1782.1914 937.38477 L 1802.2637 958.63086 L 1843.6348 1003.625 L 1887.2656 1047.3711 L 1913.4629 1072.3672 C 1919.1872 1078.3914 1922.8489 1082.3287 1916.9121 1089.8652 L 1894.7148 1113.5879 C 1891.7902 1116.5375 1887.967 1120.2617 1883.5176 1120.2617 C 1878.9931 1120.2617 1875.3047 1116.5125 1872.2676 1113.5879 L 1852.2715 1094.8145 L 1772.2812 1018.623 L 1747.2832 992.40234 C 1742.9337 988.17787 1738.8593 984.17786 1732.2852 985.17773 C 1727.0108 985.97764 1724.2367 989.62745 1721.2246 993.62695 C 1716.0877 1000.4761 1701.8882 1018.399 1701.1758 1026.123 C 1700.9133 1029.0102 1701.2021 1032.2464 1702.502 1034.8711 C 1704.8517 1039.5705 1725.6233 1058.3186 1731.0352 1063.6055 L 1759.7812 1089.9766 L 1809.7754 1138.6094 L 1828.2852 1157.3574 C 1830.7598 1160.2071 1834.1355 1164.606 1833.8105 1168.6055 C 1833.4731 1172.8424 1828.8606 1176.9789 1826.0234 1179.8535 C 1820.6866 1185.2653 1805.4016 1200.3259 1799.7773 1204.2129 C 1797.1277 1206.0502 1794.2769 1207.2749 1791.0273 1206.3125 C 1784.7406 1204.4627 1771.3807 1187.8028 1766.0312 1182.3535 L 1726.0234 1139.8594 L 1692.291 1107.3633 C 1685.0544 1100.2142 1671.1432 1084.1775 1660.0195 1092.0391 C 1656.6949 1094.3888 1653.6697 1100.0637 1651.5449 1103.6133 C 1646.5205 1111.9872 1635.2093 1126.2481 1637.834 1136.1094 C 1639.9337 1144.0084 1657.3324 1159.6688 1663.4941 1166.1055 L 1719.7871 1226.0977 L 1737.2852 1243.5957 C 1739.8723 1246.2329 1743.7962 1249.9191 1744.6836 1253.5938 C 1745.9459 1258.7681 1741.7227 1262.6191 1738.623 1266.0938 L 1718.1875 1288.5273 C 1714.4755 1292.4144 1710.3384 1295.5645 1704.7891 1293.1523 C 1700.5396 1291.2901 1681.7299 1272.9424 1677.293 1268.6055 L 1664.793 1257.2949 L 1627.2988 1219.8496 C 1620.8621 1213.4129 1606.5767 1195.1147 1598.5527 1193.9023 C 1593.5034 1193.1399 1589.966 1195.1262 1586.6289 1198.7383 L 1570.2305 1221.0996 C 1567.2558 1225.4991 1564.1933 1229.3983 1563.6934 1234.8477 C 1562.556 1247.1586 1574.4682 1253.4689 1582.3047 1261.1055 L 1641.0469 1316.1367 C 1645.6713 1320.5612 1660.7686 1334.5846 1662.3184 1339.834 C 1663.2932 1343.1461 1662.2811 1345.8449 1660.4062 1348.582 C 1655.9818 1355.0062 1641.2086 1367.4172 1634.7969 1373.5664 C 1631.5348 1376.691 1627.2107 1381.1656 1622.2988 1380.9531 C 1615.8621 1380.6782 1608.6749 1370.6045 1604.5879 1366.0801 L 1563.5566 1324.8359 C 1558.0198 1319.2991 1541.9223 1303.1132 1536.0605 1299.5137 C 1531.4986 1296.714 1524.7616 1296.3899 1520.7871 1300.377 C 1519.1498 1302.0267 1515.0873 1308.7382 1513.625 1311.0879 C 1508.8631 1318.6994 1497.4017 1333.6101 1498.8516 1342.334 C 1500.0389 1349.5206 1509.7506 1358.5077 1514.8125 1363.582 L 1548.6074 1399.8262 L 1563.6562 1416.0742 C 1566.5185 1419.1988 1570.7055 1422.9353 1571.3555 1427.3223 C 1572.4803 1434.8838 1558.6814 1445.6335 1553.7695 1451.0703 C 1538.7464 1467.6683 1508.3872 1496.789 1489.8145 1508.5625 L 1492.3145 1483.5664 L 1492.3145 1476.0664 C 1492.2895 1462.7056 1490.0163 1440.7723 1473.5684 1438.0977 C 1470.7562 1437.6352 1465.2055 1438.4091 1462.3184 1438.959 C 1457.9689 1439.7839 1453.8198 1441.4221 1449.8203 1443.2969 C 1419.1366 1457.6951 1392.5781 1479.9535 1361.082 1492.8145 C 1345.6464 1499.1137 1320.8233 1508.9621 1310.3496 1489.8145 C 1305.1628 1480.3156 1305.9629 1465.4815 1306.0879 1454.8203 C 1306.2629 1440.4471 1313.9004 1399.6886 1316.8125 1383.5781 C 1324.0366 1343.4706 1331.8216 1302.9137 1335.8711 1262.3438 C 1340.8455 1212.6373 1341.9455 1159.6196 1337.1211 1109.8633 L 1328.8359 1054.8691 L 1323.5859 1029.873 C 1327.5729 1038.0845 1331.1222 1053.1453 1333.4219 1062.3691 L 1345.3457 1118.6113 C 1350.7575 1150.8698 1354.708 1183.4662 1356.1328 1216.0996 L 1357.332 1229.8477 L 1358.582 1281.0918 L 1359.832 1307.3379 L 1359.832 1323.5859 L 1361.082 1341.084 C 1361.2445 1355.5447 1362.7196 1377.3173 1366.6191 1391.0781 C 1368.6564 1398.2897 1371.5798 1406.3137 1378.6914 1409.9258 C 1387.3153 1414.3252 1397.3271 1410.0256 1404.8262 1405.2012 C 1420.8117 1394.9274 1434.7471 1378.6177 1446.2207 1363.582 C 1477.5043 1322.5496 1500.9381 1270.9293 1521.248 1223.5977 L 1543.1836 1173.6055 C 1547.5206 1164.4816 1553.6209 1151.9832 1561.1699 1145.2715 C 1578.4428 1129.9109 1590.991 1151.5323 1597.3027 1166.1055 C 1598.4401 1159.8437 1593.5399 1150.4817 1590.7402 1144.8574 C 1584.541 1132.359 1571.4671 1109.3251 1554.8066 1122.7109 C 1552.032 1124.9357 1549.1325 1128.2472 1547.0078 1131.1094 C 1537.2215 1144.2577 1523.9995 1177.3036 1516.9629 1193.6016 C 1500.8149 1231.0094 1484.591 1268.3046 1461.9062 1302.3379 C 1451.67 1317.686 1444.5456 1326.9098 1431.0723 1339.7832 C 1426.0354 1344.5951 1418.2108 1351.17 1411.0742 1352.0449 C 1399.1257 1353.5197 1392.2769 1341.8828 1388.6523 1332.334 C 1382.5156 1316.136 1378.7162 1278.054 1377.4414 1259.8438 C 1372.367 1187.3026 1366.4062 1115.3374 1346.8086 1044.8711 C 1339.097 1017.1745 1329.9471 990.24006 1319.0859 963.63086 L 1302.3379 926.13477 C 1311.0993 938.34575 1326.0485 969.10571 1332.7227 983.62891 C 1351.7953 1025.1738 1367.3314 1067.6687 1381.4922 1111.1133 L 1398.3633 1163.6055 C 1403.8751 1179.691 1413.1879 1204.7638 1422.4492 1218.5996 C 1427.0486 1225.4738 1434.5214 1233.2229 1443.5703 1232.0605 C 1452.7067 1230.8982 1461.3189 1219.7237 1465.8184 1212.3496 C 1477.9294 1192.4396 1484.053 1169.7671 1489.6523 1147.3574 C 1496.764 1118.9109 1499.1885 1090.203 1501.1758 1061.1191 L 1502.3145 1046.1211 L 1502.3145 1002.375 L 1501.0645 978.62891 L 1499.9258 966.13086 C 1497.4011 930.01033 1491.8786 894.36511 1485.9668 858.64453 L 1475.9668 791.15234 L 1474.8672 781.15234 C 1474.5922 772.25345 1476.5926 758.20621 1486.0664 754.74414 C 1490.2034 753.00686 1495.5275 754.34419 1499.8145 754.74414 C 1493.3653 748.01997 1476.0912 740.35875 1467.7422 747.94531 C 1463.0428 752.21978 1462.3934 758.95503 1462.3184 764.9043 L 1462.3184 778.6543 C 1462.3434 797.65194 1474.6915 859.6686 1478.2285 883.64062 C 1487.4524 946.30787 1493.2407 1010.6 1484.0918 1073.6172 C 1480.9047 1095.602 1475.48 1125.3098 1465.0938 1144.8574 C 1461.2441 1152.094 1452.3707 1164.5429 1443.0469 1163.668 C 1434.023 1162.8181 1425.8108 1151.9565 1421.3613 1144.8574 C 1409.3378 1125.7098 1399.8146 1098.5896 1391.3281 1077.3672 L 1375.5176 1036.1211 C 1359.9945 997.30089 1342.6087 958.68027 1321.7988 922.38477 C 1307.4006 897.27538 1291.6143 873.05416 1274.2539 849.89453 L 1247.3457 816.14844 C 1280.2166 849.01936 1309.4127 884.70193 1336.6094 922.38477 C 1351.745 943.33217 1383.7657 989.88951 1399.8262 1006.125 C 1408.6376 1015.0114 1422.274 1028.2856 1436.0723 1025.8359 C 1442.4715 1024.7111 1446.6077 1019.2118 1449.1699 1013.625 C 1453.8068 1003.5263 1456.0578 988.46503 1456.0703 977.37891 L 1456.0703 953.63281 C 1456.0328 928.07348 1446.5214 885.03946 1439.6348 859.89258 C 1430.5984 826.87167 1417.5485 794.43994 1402.6504 763.65625 L 1395.752 748.6582 C 1361.3562 681.54152 1319.4736 624.41013 1270.3672 567.42969 L 1199.6133 487.43945 C 1193.614 479.91539 1182.0917 464.49218 1181.0918 454.94336 C 1180.6044 450.20645 1182.2162 446.81977 1183.6035 442.44531 C 1165.3183 445.93238 1170.4547 461.88037 1177.1914 473.69141 C 1186.8652 490.62681 1219.3123 525.49804 1233.6855 541.18359 C 1304.2393 618.13656 1368.1307 703.78761 1404.8887 802.40039 C 1415.5623 831.03434 1430.7098 882.30295 1431.0723 912.38672 C 1431.2097 924.07277 1430.8106 938.07162 1425.2363 948.63281 C 1421.7493 955.23199 1416.3877 959.73183 1408.5762 958.14453 C 1398.6274 956.11978 1386.8023 944.3589 1379.8281 937.38477 C 1361.3429 918.89956 1345.5452 897.66312 1329.0723 877.39062 C 1294.0141 834.25847 1251.9942 788.87695 1208.5996 754.15625 C 1196.3511 744.35746 1170.5808 723.85936 1157.3574 717.41016 C 1164.2566 718.43503 1168.9667 722.12309 1174.8535 725.66016 L 1201.1016 741.99609 L 1238.5957 767.05469 L 1291.0898 804.0625 C 1304.4007 812.9489 1326.1735 827.94774 1342.334 828.59766 C 1372.0303 829.78501 1365.9814 793.52699 1360.8945 774.9043 L 1357.332 763.65625 C 1338.2844 706.53833 1292.0405 645.87055 1249.8457 603.67578 C 1177.0297 530.8598 1097.9758 480.72744 1003.625 440.48242 C 959.93041 421.83473 914.28692 407.24917 868.64258 394.23828 L 778.6543 367.8418 C 756.59453 359.98027 752.98205 353.58158 743.6582 349.95703 z M 2482.5332 380.08789 C 2480.5384 380.07542 2478.3278 380.43174 2475.9434 381.22852 C 2470.0066 385.17803 2452.9341 401.71243 2447.1973 407.44922 L 2398.3398 458.69336 C 2392.5406 464.91759 2374.9182 480.94041 2373.7559 488.68945 C 2372.356 498.0008 2381.9917 506.1871 2390.9531 502.9375 C 2395.4401 501.3127 2403.5391 492.38899 2407.2012 488.68945 L 2432.4102 461.19336 L 2464.9062 426.19727 L 2489.4043 401.20117 C 2497.788 390.97197 2493.3054 380.15522 2482.5332 380.08789 z M 2531.9336 430.05469 C 2530.002 430.07715 2527.9654 430.38053 2525.9375 430.87109 C 2517.726 435.14556 2498.3522 458.11741 2490.8281 466.19141 L 2449.6973 508.6875 L 2426.4863 532.43359 C 2419.3497 542.25738 2426.3738 556.48119 2438.4473 552.86914 C 2444.909 550.93188 2455.2085 539.38259 2460.9453 534.4082 L 2522.1875 471.19141 C 2525.4871 467.81682 2540.4478 451.73244 2541.9727 448.69531 C 2543.26 446.09563 2543.5718 442.80746 2543.2969 439.94531 C 2542.5657 432.44624 2537.7284 429.98731 2531.9336 430.05469 z M 2584.7188 479.04688 C 2583.1491 479.01961 2581.4623 479.19966 2579.6797 479.61523 C 2572.0181 483.60224 2568.9946 488.85271 2563.3203 494.93945 L 2539.6855 518.68555 L 2494.6914 561.06836 C 2490.2045 565.24284 2474.6688 578.79034 2471.8691 582.77734 C 2464.87 592.75111 2474.4678 604.93749 2485.9414 601.71289 C 2493.228 599.66314 2507.8758 582.61489 2514.6875 576.70312 L 2554.6836 538.89648 C 2562.6451 531.68488 2588.7659 507.36158 2593.8652 499.9375 C 2600.9956 489.5591 2595.7063 479.23774 2584.7188 479.04688 z M 2633.7969 527.82617 C 2632.4552 527.85352 2631.0682 528.03598 2629.6738 528.35938 C 2621.4124 532.58385 2597.8662 555.81933 2589.6797 563.63086 L 2560.9336 590.03906 L 2544.6855 606.125 L 2527.2988 622.42383 C 2523.8118 626.18586 2519.5745 630.96002 2518.7246 636.17188 C 2517.1123 646.04565 2524.9992 653.21999 2534.6855 650.63281 C 2541.9721 648.68305 2554.8718 632.24612 2560.9336 626.17188 L 2589.6797 597.47656 L 2623.4258 566.12891 L 2633.4238 556.29297 C 2639.0606 551.03112 2646.9729 546.36999 2645.623 537.43359 C 2644.5771 530.50789 2639.6108 527.70764 2633.7969 527.82617 z M 2391.1465 570.27344 C 2389.9515 570.32473 2388.6471 570.50512 2387.2051 570.83008 C 2378.6561 574.92957 2372.6437 582.13987 2365.957 588.66406 L 2344.709 608.67383 L 2258.4199 699.91406 L 2227.2246 731.16016 C 2223.4876 734.89719 2214.6514 742.83377 2212.9766 747.4082 C 2210.7768 753.39496 2213.6499 759.62995 2216.2871 764.9043 L 2232.498 794.90234 C 2236.9475 803.3388 2241.3226 808.7995 2234.3984 817.39844 L 2223.5879 828.64648 L 2198.5898 854.89453 L 2157.1836 899.88867 L 2120.9863 936.13477 L 2088.4922 967.38086 C 2084.8676 970.98041 2078.3554 976.06587 2077.543 981.17773 C 2076.2806 989.21424 2083.3928 995.95064 2088.4922 1001.125 L 2123.4863 1037.3457 C 2128.4107 1042.1326 2134.7478 1047.945 2142.2344 1045.1953 C 2146.8588 1043.483 2153.5704 1036.0351 2157.2324 1032.373 L 2184.7285 1004.9883 L 2264.7188 929.88477 L 2307.4258 885.52734 C 2314.4874 880.10302 2321.8993 884.90359 2328.4609 888.64062 L 2360.957 907.19922 C 2366.3814 910.28634 2371.9809 913.90009 2378.4551 911.46289 C 2383.6044 909.52563 2391.6907 900.43814 2395.4277 896.13867 L 2418.4629 871.14258 L 2458.457 828.64648 L 2482.1934 806.09961 L 2515.9375 773.76758 L 2547.1836 744.89453 C 2551.7955 740.3326 2556.7077 735.77178 2555.6328 728.66016 C 2554.7829 723.04835 2549.7581 718.74913 2545.9336 714.91211 L 2523.4375 693.66406 L 2428.3359 602.42578 L 2408.5645 582.42773 C 2402.4402 575.85511 2399.5111 569.91442 2391.1465 570.27344 z M 2680.041 576.57031 C 2678.6993 576.59767 2677.3123 576.78012 2675.918 577.10352 C 2664.5694 582.9153 2654.2332 596.06396 2644.6719 604.71289 L 2620.9746 627.42188 L 2609.6641 639.91992 L 2576.5176 674.91602 C 2573.243 678.97801 2570.4559 683.20224 2571.1309 688.66406 C 2572.0932 696.4381 2581.0556 701.83873 2588.4297 699.16406 C 2594.8539 696.83935 2608.1272 680.54032 2613.4766 674.91602 L 2641.0352 644.91992 L 2657.0586 628.67188 L 2669.6699 614.92383 C 2676.6816 607.8872 2693.467 596.73893 2691.8672 586.17773 C 2690.8212 579.25203 2685.855 576.45178 2680.041 576.57031 z M 2727.3984 626.53125 C 2726.111 626.58542 2724.7744 626.7727 2723.4121 627.09766 C 2714.1508 631.92206 2708.1276 641.35833 2700.916 648.66992 L 2647.1719 706.16211 L 2629.6738 723.66016 C 2626.1368 727.24721 2622.012 730.92135 2621.2246 736.1582 C 2619.8873 745.0821 2628.7249 753.33204 2637.1738 750.23242 C 2641.2108 748.74511 2652.4098 738.32106 2655.9219 734.89648 L 2708.5273 679.91602 L 2732.873 653.66992 C 2735.5977 650.48282 2739.2857 646.49442 2740.373 642.41992 C 2743.0852 632.23837 2736.4108 626.15207 2727.3984 626.53125 z M 2780.4902 675.49219 C 2779.4058 675.4839 2778.2952 675.59573 2777.1562 675.8418 C 2770.3571 679.37886 2750.5468 701.52549 2743.4102 708.66211 L 2705.9141 746.10742 L 2674.668 774.91602 L 2648.4219 799.875 C 2644.7348 803.42456 2640.3345 807.74907 2634.7227 806.57422 C 2630.4107 805.67433 2626.4242 800.47501 2623.4121 797.40039 L 2603.4141 776.1543 C 2597.6773 770.31752 2592.2536 765.00549 2583.4297 768.33008 C 2578.0554 770.35483 2567.7436 780.61537 2563.4316 784.90234 L 2535.9355 811.15039 L 2503.5527 843.64453 L 2432.1992 919.88672 L 2397.2031 954.66992 C 2393.5536 957.96951 2385.517 965.68058 2380.9551 966.54297 C 2375.3183 967.60534 2367.9815 962.00628 2363.457 959.05664 C 2356.9453 954.83216 2331.6727 938.4959 2325.9609 936.93359 C 2317.8744 934.72137 2313.8017 939.80883 2308.4648 944.8457 C 2301.2532 951.64486 2292.5037 956.08226 2293.6035 967.38086 C 2294.2659 974.16752 2298.9767 977.76698 2303.4512 982.37891 L 2319.7129 999.87695 L 2333.5117 1014.875 L 2363.457 1044.8574 L 2395.9531 1074.9785 L 2414.7012 1092.4023 C 2420.238 1097.6267 2425.0753 1102.8384 2433.4492 1100.5762 C 2438.2111 1099.2888 2440.498 1095.8023 2443.6602 1092.3652 L 2460.9941 1073.6172 L 2529.6875 1003.6387 L 2614.6758 923.63477 L 2627.2246 909.88672 L 2682.2793 851.14453 L 2728.4121 804.90039 L 2794.6543 742.4082 C 2799.7787 737.28384 2814.6519 724.48459 2817.4766 719.91016 C 2820.6762 714.7483 2819.8515 709.69902 2816.4395 704.91211 C 2814.1897 701.7625 2808.8145 696.5762 2805.9023 693.66406 C 2798.9817 686.74344 2790.9731 675.57226 2780.4902 675.49219 z M 866.14258 961.13086 L 879.89062 961.13086 C 879.3157 962.95563 879.34162 963.92988 877.9043 965.49219 C 875.96704 967.60443 861.55652 971.99163 857.39453 973.81641 C 845.44601 979.07825 836.0957 987.10338 829.77148 998.62695 C 821.14755 1014.375 823.024 1034.4587 827.58594 1051.1191 L 833.38477 1069.8672 L 829.89648 1098.6133 C 825.87198 1095.6012 824.37197 1090.4647 822.00977 1086.1152 L 810.32422 1067.3672 C 802.96263 1056.0936 795.03932 1043.984 790.83984 1031.123 C 789.47751 1026.9486 787.76561 1017.987 787.51562 1013.625 C 785.24091 973.65495 834.90895 961.18085 866.14258 961.13086 z M 861.14258 996.12695 L 851.68164 1017.373 L 842.39648 1042.3711 C 838.89692 1036.9218 840.49616 1034.6848 841.05859 1028.623 C 842.39593 1014.1873 847.83173 1003.0011 861.14258 996.12695 z M 963.63086 1018.623 L 992.37695 1026.123 L 976.12891 1027.4844 L 959.88086 1029.873 L 963.63086 1018.623 z M 983.22656 1053.8242 C 999.74996 1054.0287 1019.263 1059.4047 1032.373 1066.1172 C 1026.8362 1068.3169 1020.7118 1066.9048 1014.875 1067.7422 C 1005.7136 1069.0545 994.90102 1072.9542 987.37695 1078.3535 C 973.57866 1088.2273 965.7926 1103.2632 959.63086 1118.6113 C 948.73221 1145.783 946.19458 1166.1801 943.41992 1194.8516 L 941.13281 1217.3496 L 938.63281 1217.3496 L 938.63281 1189.8535 L 939.83398 1173.6055 L 945.93359 1102.3633 L 949.36914 1073.6172 C 949.96907 1069.8552 950.39486 1064.7686 953.08203 1061.9062 C 957.24402 1057.5068 966.56713 1055.5065 972.37891 1054.5566 C 975.75818 1054.0059 979.41347 1053.777 983.22656 1053.8242 z M 1022.8027 1097.3926 C 1028.5167 1097.498 1034.8655 1098.399 1039.8711 1099.4395 C 1049.2824 1101.4142 1058.8057 1104.2263 1067.3672 1108.6133 L 1049.8691 1112.2363 C 1042.745 1113.9986 1033.1973 1118.5873 1027.373 1123.0117 C 1009.5003 1136.5725 1001.7757 1151.6954 992.06445 1171.1055 C 977.32878 1200.5893 973.24182 1215.212 963.98047 1246.0957 L 953.63281 1279.8418 C 949.94577 1274.6924 944.99523 1257.5824 944.32031 1251.0957 C 943.79538 1246.0088 945.93335 1241.0095 947.0957 1236.0977 L 953.11914 1206.0996 C 958.281 1175.3284 964.5929 1124.361 992.37695 1105.6133 C 999.88852 1100.5389 1008.4492 1098.4386 1017.373 1097.5762 C 1019.0635 1097.4106 1020.8981 1097.3574 1022.8027 1097.3926 z M 1321.0859 1119.8613 L 1323.5859 1164.8555 L 1323.5859 1201.1016 L 1322.3359 1227.3477 L 1321.1992 1239.8457 C 1319.087 1270.0045 1314.6997 1300.0271 1309.5254 1329.8359 L 1287.4902 1432.3223 C 1281.041 1459.4939 1273.3056 1486.866 1271.3184 1514.8125 C 1271.0559 1518.512 1271.7552 1522.4235 1272.4551 1526.0605 C 1277.8419 1553.9446 1307.0008 1547.0452 1326.0859 1539.5586 C 1354.2824 1528.485 1379.5043 1511.5886 1404.8262 1495.2031 L 1438.5723 1473.7676 C 1451.0082 1467.2059 1472.2559 1457.3196 1481.8672 1473.7676 C 1486.1417 1480.8292 1489.8533 1504.9138 1485.0039 1512.0879 C 1482.3542 1515.9999 1472.8678 1521.4609 1468.5684 1524.0605 C 1453.6327 1533.0719 1443.1453 1538.5474 1427.3223 1545.7715 C 1376.1411 1569.1311 1318.1618 1579.1664 1262.3438 1572.4922 C 1246.758 1570.6299 1217.1374 1565.4558 1203.6016 1558.5566 C 1209.6758 1528.4354 1237.6833 1465.6684 1250.7441 1434.8223 C 1270.4292 1388.328 1286.7914 1339.8838 1299.6523 1291.0898 C 1308.4388 1257.719 1318.186 1200.2762 1318.5859 1166.1055 L 1319.7871 1153.6074 L 1319.7871 1138.6094 C 1319.8371 1132.9351 1319.0362 1125.0232 1321.0859 1119.8613 z M 1060.6777 1145.1504 C 1072.4738 1145.1909 1084.2165 1148.0858 1097.3633 1149.8574 C 1093.8762 1155.0318 1084.2915 1156.7064 1078.6172 1159.7188 C 1069.1434 1164.7431 1056.0061 1174.5045 1048.832 1182.3535 C 1034.2213 1198.3515 1020.8994 1221.0605 1009.8633 1239.8457 L 978.31641 1298.5898 L 968.63086 1317.3359 L 966.13086 1317.3359 L 959.15625 1297.3398 C 958.49383 1292.6779 960.69434 1289.0393 962.30664 1284.8398 L 971.12891 1261.0938 C 979.41538 1236.2466 989.50162 1207.4257 1002.5625 1184.8535 C 1009.8866 1172.2051 1019.2247 1159.1191 1032.373 1152.1074 C 1042.2976 1146.8143 1051.503 1145.1189 1060.6777 1145.1504 z M 1298.5898 1189.8535 C 1298.5898 1212.8007 1291.6771 1250.6696 1286.6152 1273.5918 C 1271.4421 1342.3208 1247.5448 1405.9513 1218.2109 1469.8184 L 1179.8535 1549.8086 C 1168.1675 1547.0589 1154.4436 1538.7724 1143.6074 1533.5605 C 1146.5696 1525.799 1152.3826 1518.1616 1156.832 1511.0625 L 1183.541 1468.5684 C 1202.7761 1437.8472 1228.3855 1391.353 1243.8711 1358.582 C 1258.2318 1328.1983 1274.5554 1287.1647 1283.4043 1254.8438 L 1293.5898 1213.5996 C 1294.8897 1207.1754 1296.2526 1195.3153 1298.5898 1189.8535 z M 1124.8613 1191.1016 L 1101.1133 1209.1367 C 1085.1528 1222.3976 1075.83 1232.4352 1062.9316 1248.5957 L 1035.5977 1286.0898 L 1012.0254 1318.5859 L 983.62891 1357.332 C 981.10422 1352.7701 974.02895 1338.3584 974.37891 1333.584 C 974.65387 1329.6095 979.74049 1321.1355 981.80273 1317.3359 L 1000.0645 1284.8398 C 1017.8747 1253.6312 1040.2215 1211.9123 1074.8672 1197.9141 C 1092.265 1190.8899 1106.6761 1191.1016 1124.8613 1191.1016 z M 1149.8574 1224.8477 C 1146.2329 1232.5092 1137.2086 1239.9965 1131.1094 1246.0957 L 1100.2012 1279.8418 L 1034.5586 1361.082 C 1027.6345 1369.406 1009.5991 1391.3644 1002.375 1397.3262 C 999.80032 1392.8517 990.652 1376.767 991.00195 1372.3301 C 991.30192 1368.5056 997.68929 1360.5941 1000.1641 1357.332 L 1023.4609 1326.0859 C 1041.4212 1302.1639 1062.3057 1273.9665 1086.1152 1255.9688 C 1104.8254 1241.8203 1127.7102 1232.2467 1149.8574 1224.8477 z M 1268.5938 1234.8477 C 1267.9436 1242.5217 1263.8689 1255.7195 1261.6191 1263.5938 L 1241.8457 1321.0859 C 1222.1231 1370.8173 1197.5016 1418.099 1169.3301 1463.5684 L 1145.2715 1501.0645 L 1129.8594 1523.5605 C 1120.3606 1521.2983 1110.3498 1512.9618 1102.3633 1507.3125 C 1105.0629 1499.326 1121.8867 1480.2674 1128.0859 1472.3184 L 1178.6035 1403.5762 C 1211.4744 1354.4948 1220.8115 1338.9083 1247.0332 1286.0898 L 1268.5938 1234.8477 z M 1176.1035 1251.0957 L 1120.1113 1324.8359 C 1090.1275 1362.3188 1060.5314 1400.0641 1027.373 1434.8223 C 1023.0236 1431.3977 1011.1239 1416.611 1011.4238 1411.0742 C 1011.6363 1407.3122 1017.4359 1401.3883 1019.9355 1398.5762 L 1042.8965 1372.3301 C 1075.9174 1333.7599 1095.6769 1311.2867 1136.1094 1279.5781 C 1144.2709 1273.1789 1167.892 1253.8704 1176.1035 1251.0957 z M 1234.8477 1261.0938 C 1233.5353 1268.1054 1230.1223 1274.5551 1227.3477 1281.0918 L 1205.1641 1327.3359 C 1179.1673 1379.317 1127.923 1453.4324 1089.8652 1497.3145 C 1084.1409 1493.6899 1077.3533 1488.3904 1072.4414 1483.7285 C 1070.0792 1481.4913 1067.6794 1479.5921 1068.7168 1476.0176 C 1069.7417 1472.4805 1082.9028 1458.4324 1086.2148 1454.8203 L 1123.0859 1412.3242 C 1146.9455 1384.0777 1175.1413 1350.0197 1196.0762 1319.8359 L 1221.0371 1282.3418 C 1224.9116 1276.1426 1230.0233 1265.9057 1234.8477 1261.0938 z M 1203.6016 1263.5938 C 1201.0144 1272.6426 1195.401 1280.5783 1190.6016 1288.5898 L 1165.2676 1328.5859 C 1136.9711 1371.0432 1091.6897 1431.7478 1056.1191 1467.3184 C 1051.3572 1463.9063 1035.7088 1451.082 1037.6836 1444.8203 C 1038.721 1441.4832 1050.5945 1429.1363 1053.6191 1426.0742 L 1083.4023 1393.5781 L 1132.4727 1339.834 L 1168.4922 1302.3379 L 1203.6016 1263.5938 z M 1722.2871 2042.2461 L 1722.2871 2080.9922 L 1781.0293 2080.9922 L 1781.0293 2304.7148 L 1701.0391 2304.7148 L 1701.0391 2343.459 L 1911.0137 2343.459 L 1911.0137 2314.7129 C 1910.9387 2303.3518 1909.576 2304.7148 1892.2656 2304.7148 L 1838.5215 2304.7148 L 1838.5215 2042.2461 L 1722.2871 2042.2461 z M 773.6543 2065.9941 L 765.00586 2067.957 L 759.00586 2084.7422 L 747.4082 2123.4863 L 709.91211 2123.4863 L 709.91211 2162.2324 L 743.6582 2162.2324 L 743.6582 2280.9668 C 743.85818 2297.4398 748.06906 2315.1511 760.01758 2327.0996 C 773.76587 2340.8479 797.23828 2345.8715 816.14844 2345.959 C 848.14447 2346.109 856.99439 2343.7479 887.39062 2339.7109 L 887.39062 2302.2148 C 866.24325 2303.9271 829.72193 2313.9265 811.26172 2300.8281 C 798.5008 2291.7792 801.15039 2275.8671 801.15039 2262.2188 L 801.15039 2162.2324 L 878.64062 2162.2324 L 878.64062 2123.4863 L 801.15039 2123.4863 L 801.15039 2077.2422 L 799.875 2067.9941 L 792.40234 2065.9941 L 773.6543 2065.9941 z M 2303.7305 2119.3379 C 2282.9415 2119.3199 2262.3126 2123.8527 2247.2207 2132.7988 C 2215.7496 2151.4715 2200.1515 2189.129 2199.7266 2224.7246 C 2199.2141 2268.6692 2206.9135 2312.7259 2249.7207 2335.5605 C 2283.9165 2353.7958 2338.4359 2350.7588 2369.707 2327.5117 C 2380.5432 2319.4502 2388.4039 2309.2009 2394.3906 2297.2148 C 2398.8151 2288.3784 2401.7407 2279.655 2402.2031 2269.7188 L 2363.457 2268.4688 L 2344.709 2267.2188 C 2343.0217 2301.7645 2306.8512 2318.9869 2282.2168 2301.2266 C 2264.8564 2288.7031 2259.7582 2259.8952 2259.7207 2239.7227 C 2259.6832 2216.8755 2259.5942 2189.4536 2275.5547 2171.1934 C 2288.928 2155.8953 2314.3265 2153.9587 2329.5996 2167.6445 C 2337.8111 2175.0061 2341.3467 2185.4923 2343.459 2195.9785 L 2362.207 2194.7285 L 2379.7051 2193.4785 L 2400.9531 2192.2285 C 2396.3912 2169.6313 2386.0297 2151.033 2367.207 2137.1348 C 2351.059 2125.223 2327.2913 2119.3583 2303.7305 2119.3379 z M 2553.6992 2119.3379 C 2532.9103 2119.3199 2512.2833 2123.8527 2497.1914 2132.7988 C 2465.7203 2151.4715 2450.1222 2189.129 2449.6973 2224.7246 C 2449.1848 2268.6692 2456.8823 2312.7259 2499.6895 2335.5605 C 2533.8852 2353.7958 2588.4047 2350.7588 2619.6758 2327.5117 C 2630.5119 2319.4502 2638.3726 2309.2009 2644.3594 2297.2148 C 2648.7838 2288.3784 2651.7094 2279.655 2652.1719 2269.7188 L 2613.4258 2268.4688 L 2594.6777 2267.2188 C 2592.9904 2301.7645 2556.82 2318.9869 2532.1855 2301.2266 C 2514.8252 2288.7031 2509.7269 2259.8952 2509.6895 2239.7227 C 2509.652 2216.8755 2509.5649 2189.4536 2525.5254 2171.1934 C 2538.8987 2155.8953 2564.2953 2153.9587 2579.5684 2167.6445 C 2587.7798 2175.0061 2591.3155 2185.4923 2593.4277 2195.9785 L 2612.1758 2194.7285 L 2629.6738 2193.4785 L 2650.9219 2192.2285 C 2646.3599 2169.6313 2635.9984 2151.033 2617.1758 2137.1348 C 2601.0278 2125.223 2577.26 2119.3583 2553.6992 2119.3379 z M 555.31836 2119.5 C 526.40532 2119.4088 496.47226 2128.8558 477.49023 2147.3457 C 456.53033 2167.7557 447.78277 2201.2281 447.44531 2229.7246 C 447.02037 2266.82 457.28084 2306.2649 488.68945 2329.0996 C 505.18741 2341.0856 529.70915 2347.1715 549.93164 2347.209 C 593.75121 2347.2715 637.82189 2332.5987 653.66992 2287.2168 L 618.67383 2284.6035 C 614.21188 2284.2786 606.83775 2282.6806 602.55078 2283.8555 C 597.46391 2285.2678 596.43812 2290.9291 592.01367 2295.8535 C 587.70171 2300.6529 581.02893 2304.2776 574.92969 2306.2773 C 569.81782 2307.9521 566.51653 2308.4024 561.17969 2308.4648 C 554.56801 2308.5398 548.79531 2308.7771 542.43359 2306.5273 C 516.74928 2297.4785 507.97493 2269.5321 507.4375 2244.7227 L 646.16992 2244.7227 C 648.64462 2244.7227 653.45571 2245.0096 655.41797 2243.4473 C 656.34285 2242.7099 656.7055 2241.91 656.98047 2240.7852 L 655.81836 2219.7246 C 653.0562 2196.5275 647.07079 2172.0426 632.03516 2153.4824 C 624.01115 2143.5836 615.12436 2135.811 603.67578 2130.0742 C 589.64783 2123.0438 572.66619 2119.5547 555.31836 2119.5 z M 1302.4648 2119.6465 C 1290.9984 2119.5432 1279.7507 2120.7444 1269.8418 2122.7363 C 1257.6933 2125.186 1244.6214 2129.8869 1234.8477 2137.7109 C 1216.9499 2152.0217 1214.0614 2164.1311 1208.5996 2184.7285 L 1229.8477 2185.9785 L 1268.5938 2187.2285 C 1269.6561 2179.3795 1270.8667 2172.1556 1276.3535 2166.0312 C 1286.6397 2154.5577 1307.6998 2153.5826 1318.4609 2164.7812 C 1330.197 2177.0048 1328.5859 2195.366 1328.5859 2210.9766 L 1278.5918 2210.9766 C 1266.0808 2211.0016 1248.9337 2213.7764 1237.3477 2218.4883 C 1223.9618 2223.9501 1213.8499 2231.8992 1206.7383 2244.7227 C 1194.1898 2267.3823 1196.3396 2305.7509 1212.9375 2325.9609 C 1234.7598 2352.5451 1284.7287 2353.546 1311.0879 2333.5859 C 1320.8617 2326.1869 1329.8346 2314.6635 1334.834 2303.4648 C 1339.2459 2315.5134 1338.7217 2327.325 1349.8828 2336.7363 C 1362.8187 2347.6475 1382.9156 2346.4599 1398.5762 2344.3477 C 1402.8506 2343.7727 1414.6495 2342.1479 1416.5742 2338.0859 C 1417.4116 2336.3362 1417.3117 2332.9232 1417.3242 2330.9609 L 1417.3242 2310.002 C 1411.9749 2309.9645 1406.238 2311.5268 1401.0762 2310.002 C 1387.4154 2307.0398 1386.0906 2291.3529 1386.0781 2279.7168 L 1386.0781 2212.2266 C 1386.0781 2187.7796 1386.2901 2164.7444 1369.4297 2144.7344 C 1353.98 2126.4148 1327.691 2119.8737 1302.4648 2119.6465 z M 2052.3711 2119.6465 C 2040.9047 2119.5432 2029.6589 2120.7444 2019.75 2122.7363 C 2007.6015 2125.186 1994.5277 2129.8869 1984.7539 2137.7109 C 1966.8561 2152.0217 1963.9696 2164.1311 1958.5078 2184.7285 L 1979.7539 2185.9785 L 2018.5 2187.2285 C 2019.5624 2179.3795 2020.7749 2172.1556 2026.2617 2166.0312 C 2036.5479 2154.5577 2057.608 2153.5826 2068.3691 2164.7812 C 2080.1052 2177.0048 2078.4922 2195.366 2078.4922 2210.9766 L 2028.498 2210.9766 C 2015.9871 2211.0016 1998.84 2213.7764 1987.2539 2218.4883 C 1973.8681 2223.9501 1963.7562 2231.8992 1956.6445 2244.7227 C 1944.0961 2267.3823 1946.2457 2305.7509 1962.8438 2325.9609 C 1984.666 2352.5451 2034.6349 2353.546 2060.9941 2333.5859 C 2070.7679 2326.1869 2079.7428 2314.6635 2084.7422 2303.4648 C 2089.1541 2315.5134 2088.6279 2327.325 2099.7891 2336.7363 C 2112.725 2347.6475 2132.8238 2346.4599 2148.4844 2344.3477 C 2152.7588 2343.7727 2164.5577 2342.1479 2166.4824 2338.0859 C 2167.3198 2336.3362 2167.2199 2332.9232 2167.2324 2330.9609 L 2167.2324 2310.002 C 2161.8831 2309.9645 2156.1462 2311.5268 2150.9844 2310.002 C 2137.3236 2307.0398 2135.9988 2291.3529 2135.9863 2279.7168 L 2135.9863 2212.2266 C 2135.9863 2187.7796 2136.1983 2164.7444 2119.3379 2144.7344 C 2103.8882 2126.4148 2077.5972 2119.8737 2052.3711 2119.6465 z M 1608.7773 2119.7188 C 1579.0589 2119.9216 1555.3535 2124.947 1539.5352 2154.7324 C 1536.6605 2160.1567 1534.6979 2163.6312 1533.5605 2169.7305 C 1530.5109 2163.1688 1528.6732 2147.1083 1526.5234 2138.4844 C 1522.9989 2124.3111 1523.8362 2123.5613 1513.5625 2123.4863 L 1467.3184 2123.4863 C 1472.0678 2147.0834 1475.7549 2164.1315 1477.4297 2188.4785 L 1478.5664 2200.9766 L 1478.5664 2343.459 L 1534.8105 2343.459 L 1534.8105 2307.2148 L 1534.8105 2270.9688 C 1534.8105 2241.9473 1535.2855 2216.538 1553.7207 2192.2285 C 1561.4572 2182.0173 1571.3187 2174.6679 1583.5547 2170.8184 C 1605.6395 2163.4318 1625.3371 2169.9685 1647.2969 2170.8184 L 1647.2969 2133.4863 C 1647.2969 2131.0491 1647.6209 2126.3494 1646.0586 2124.4121 C 1644.3463 2122.2999 1639.8591 2122.0878 1637.2969 2121.7129 L 1614.8008 2119.7383 C 1612.7667 2119.7148 1610.7586 2119.7052 1608.7773 2119.7188 z M 339.95703 2119.7383 C 312.7729 2119.4258 291.60176 2123.9998 274.31641 2147.2344 C 269.76697 2153.3461 265.81654 2159.8833 263.7168 2167.2324 L 260.31836 2135.9863 L 258.69336 2125.4863 L 251.21875 2123.4863 L 204.97461 2123.4863 L 204.97461 2128.4863 L 206.22461 2147.2344 L 206.22461 2343.459 L 263.7168 2343.459 L 263.7168 2222.2246 C 264.02926 2195.4654 278.65216 2164.0935 308.71094 2162.3438 C 338.96969 2160.5815 344.91954 2191.2295 344.95703 2214.7266 L 344.95703 2343.459 L 402.44922 2343.459 L 402.44922 2209.7266 L 401.20117 2197.2285 L 401.20117 2185.9785 C 400.1763 2172.5802 395.61322 2157.5704 388.85156 2145.9844 C 378.96529 2129.024 359.14215 2119.9633 339.95703 2119.7383 z M 1042.3711 2119.7383 C 1011.2624 2119.7883 974.7545 2132.9614 963.75586 2164.7324 C 960.71874 2173.5188 961.03087 2181.8546 961.13086 2190.9785 C 961.71829 2240.1349 1019.1112 2248.3709 1056.1191 2256.2324 C 1065.643 2258.2572 1080.6662 2261.6069 1088.6152 2267.0312 C 1102.2135 2276.3301 1102.3135 2293.141 1088.6152 2302.4023 C 1079.8913 2308.2891 1061.5928 2309.8254 1051.1191 2309.7129 C 1039.1206 2309.5754 1022.8348 2307.7025 1013.6484 2299.4785 C 1010.2739 2296.4789 1008.0251 2293.6913 1005.9004 2289.7168 C 1004.5881 2287.2546 1003.3254 2282.8553 1000.6133 2281.793 C 998.38856 2280.9181 988.9641 2282.7165 986.12695 2283.1289 L 952.38281 2288.4668 C 955.7199 2309.7392 971.89184 2328.0858 991.12695 2336.8223 C 1001.0007 2341.3092 1011.7119 2343.5604 1022.373 2345.2227 L 1042.3711 2347.209 C 1082.0037 2347.6714 1137.5472 2342.1591 1149.6582 2295.9648 C 1151.0455 2290.678 1151.6316 2282.6931 1151.4316 2277.2188 C 1151.0692 2267.4575 1150.6702 2261.4696 1146.7832 2252.2207 C 1134.2723 2222.5369 1093.1637 2214.0387 1064.8672 2207.752 C 1049.1691 2204.2774 1015.5115 2201.3279 1013.7617 2180.9805 C 1012.7493 2169.2444 1020.6493 2162.8188 1031.123 2159.9316 C 1045.0088 2156.1071 1069.9418 2155.4463 1082.3652 2163.4453 C 1086.9522 2166.3949 1090.0277 2169.9436 1092.5898 2174.7305 C 1094.2146 2177.7801 1095.1391 2182.1044 1098.8887 2183.0918 C 1101.2509 2183.7167 1108.1262 2182.4664 1111.1133 2182.2539 L 1146.1074 2178.4805 C 1145.445 2171.1189 1143.4578 2166.2816 1140.1582 2159.7324 C 1126.1474 2131.8984 1093.3155 2119.7883 1063.6191 2119.7383 L 1042.3711 2119.7383 z M 555.58789 2155.5273 C 564.82288 2155.5755 573.94113 2158.2834 581.17773 2163.9688 C 595.11351 2174.9049 601.0133 2191.1912 601.17578 2208.4766 L 508.6875 2208.4766 C 508.7 2196.6405 510.46131 2186.3417 516.62305 2175.9805 C 524.48145 2162.7555 540.19624 2155.447 555.58789 2155.5273 z M 1296.0898 2242.2227 L 1328.5859 2242.2227 C 1328.5859 2254.1962 1329.4862 2263.0576 1325.6367 2274.7188 C 1323.037 2282.6053 1319.4364 2288.7667 1313.5371 2294.666 C 1302.7509 2305.4522 1279.3414 2313.6001 1266.3555 2301.7266 C 1257.0191 2293.1901 1256.5694 2269.3319 1261.5312 2258.4707 C 1263.9186 2253.2464 1267.2799 2249.4465 1272.3418 2246.6719 C 1278.8535 2243.0848 1288.7533 2242.2352 1296.0898 2242.2227 z M 2045.9961 2242.2227 L 2078.4922 2242.2227 C 2078.4922 2254.1962 2079.3925 2263.0576 2075.543 2274.7188 C 2072.9433 2282.6053 2069.3446 2288.7667 2063.4453 2294.666 C 2052.6591 2305.4522 2029.2476 2313.6001 2016.2617 2301.7266 C 2006.9254 2293.1901 2006.4756 2269.3319 2011.4375 2258.4707 C 2013.8247 2253.2464 2017.1881 2249.4465 2022.25 2246.6719 C 2028.7617 2243.0848 2038.6595 2242.2352 2045.9961 2242.2227 z "
       transform="scale(0.80009912,0.80009912)"
       id="path4268" />
  </g>
</svg>
